<?xml version="1.0" standalone="no"?>
<!DOCTYPE svg PUBLIC "-//W3C//DTD SVG 20010904//EN"
 "http://www.w3.org/TR/2001/REC-SVG-20010904/DTD/svg10.dtd">
<svg version="1.0" xmlns="http://www.w3.org/2000/svg"
 width="300.000000pt" height="68.000000pt" viewBox="0 0 300.000000 68.000000"
 preserveAspectRatio="xMidYMid meet">
<metadata>
Created by potrace 1.10, written by Peter Selinger 2001-2011
</metadata>
<g transform="translate(0.000000,68.000000) scale(0.100000,-0.100000)"
fill="#000000" stroke="none">
<path d="M1486 663 c-12 -12 -6 -43 9 -43 8 0 15 2 15 4 0 2 3 11 6 19 5 15
-19 31 -30 20z"/>
<path d="M63 630 c-5 -20 -7 -20 -24 -4 -11 10 -22 14 -26 10 -4 -4 3 -16 17
-26 l25 -20 -22 0 c-16 0 -23 -6 -23 -20 0 -13 6 -20 18 -19 10 0 12 3 5 6
-19 7 -16 20 7 26 11 3 25 18 30 33 9 23 13 25 20 14 8 -13 10 -12 10 3 0 24
-31 21 -37 -3z"/>
<path d="M2900 633 c0 -15 2 -16 10 -3 7 11 11 9 20 -14 5 -15 19 -30 30 -33
23 -6 26 -19 8 -26 -8 -3 -6 -6 5 -6 11 -1 17 6 17 19 0 14 -7 20 -22 20 l-23
0 25 20 c14 10 21 22 17 26 -4 4 -15 0 -26 -10 -17 -16 -19 -16 -24 4 -6 24
-37 27 -37 3z"/>
<path d="M1445 620 c4 -7 -215 -11 -647 -12 l-653 -3 660 -5 c363 -3 664 -3
668 -2 10 5 -12 32 -25 32 -5 0 -6 -4 -3 -10z"/>
<path d="M1523 615 c-3 -9 -4 -17 -2 -18 2 -1 303 0 669 3 l665 5 -658 3
c-436 1 -656 5 -652 12 3 6 1 10 -5 10 -6 0 -13 -7 -17 -15z"/>
<path d="M165 548 c-8 -25 -21 -38 -52 -53 l-43 -19 0 -137 0 -137 30 -7 c33
-7 70 -48 70 -76 0 -18 39 -19 1330 -19 1291 0 1330 1 1330 19 0 28 37 69 70
76 l30 7 0 137 0 137 -42 19 c-32 15 -45 28 -53 52 l-9 33 -1326 0 -1326 0 -9
-32z m2645 -2 c0 -20 40 -66 66 -76 23 -9 24 -13 24 -127 l0 -118 -34 -19
c-19 -10 -42 -33 -50 -51 l-15 -32 -1300 -2 -1300 -1 -16 33 c-9 19 -32 43
-51 53 l-34 19 0 118 c0 114 1 118 24 127 26 10 66 56 66 76 0 12 210 14 1310
14 1100 0 1310 -2 1310 -14z"/>
<path d="M50 340 l0 -170 28 1 c23 2 24 2 5 6 -23 4 -23 6 -23 163 0 143 2
159 18 163 13 4 11 5 -5 6 -23 1 -23 1 -23 -169z"/>
<path d="M2923 503 c15 -4 17 -20 17 -163 0 -157 0 -159 -22 -163 -20 -4 -19
-4 5 -6 l27 -1 0 170 c0 170 0 170 -22 169 -17 -1 -19 -2 -5 -6z"/>
<path d="M60 149 c0 -5 5 -7 11 -4 6 4 9 -3 7 -21 -2 -15 2 -29 8 -31 6 -2 8
10 6 32 -3 21 -10 35 -18 35 -8 0 -14 -5 -14 -11z"/>
<path d="M2913 120 c2 -34 4 -37 17 -25 11 12 12 18 2 27 -14 14 -16 32 -2 23
6 -3 10 -1 10 4 0 6 -7 11 -15 11 -11 0 -14 -10 -12 -40z"/>
<path d="M10 110 c0 -14 7 -20 22 -20 l22 0 -22 -20 c-20 -19 -29 -40 -17 -40
2 0 13 10 25 22 16 17 20 18 20 6 0 -23 26 -30 42 -11 11 14 11 16 -4 10 -11
-4 -22 2 -32 19 -9 13 -23 24 -31 24 -18 0 -20 16 -2 23 7 3 5 6 -5 6 -12 1
-18 -6 -18 -19z"/>
<path d="M2968 123 c17 -7 15 -23 -3 -23 -8 0 -22 -11 -31 -26 -9 -14 -23 -23
-30 -20 -8 3 -14 1 -14 -3 0 -20 30 -19 44 1 13 18 16 19 21 6 7 -18 35 -32
35 -18 0 5 -10 18 -22 30 l-22 20 22 0 c15 0 22 6 22 20 0 13 -6 20 -17 19
-11 0 -13 -3 -5 -6z"/>
<path d="M150 78 c0 -5 293 -8 651 -8 431 0 648 -3 644 -10 -10 -16 11 -12 25
5 7 8 11 15 9 15 -244 5 -1329 3 -1329 -2z"/>
<path d="M1522 71 c2 -8 9 -16 17 -19 8 -3 11 0 7 7 -5 8 164 11 648 11 361 0
656 3 656 8 0 4 -299 7 -665 7 -569 0 -665 -2 -663 -14z"/>
<path d="M1480 41 c0 -24 11 -32 28 -22 16 10 5 41 -14 41 -8 0 -14 -9 -14
-19z"/>
</g>
</svg>
