<?xml version="1.0" encoding="UTF-8" standalone="no"?>
<!-- Created with Inkscape (http://www.inkscape.org/) -->

<svg
   width="210mm"
   height="297mm"
   viewBox="0 0 210 297"
   version="1.1"
   id="svg1"
   xml:space="preserve"
   xmlns="http://www.w3.org/2000/svg"
   xmlns:svg="http://www.w3.org/2000/svg"><defs
     id="defs1" /><g
     id="layer1"><path
       style="fill:#000000"
       d="m 33.161,292.73234 c -0.617238,-0.28459 -0.864473,-1.02466 -0.4907,-1.46887 0.589928,-0.70109 1.738118,-0.56492 1.581549,0.18756 -0.02197,0.10558 -0.04746,0.0897 -0.133736,-0.0835 -0.09201,-0.18466 -0.143714,-0.21275 -0.377828,-0.20523 -0.337643,0.0108 -0.643341,0.2297 -0.673396,0.48211 -0.04948,0.41554 0.650364,0.78399 1.165928,0.61384 0.259038,-0.0855 0.889304,-0.7273 0.889304,-0.90559 0,-0.0585 -0.20347,-0.33586 -0.452155,-0.61628 -1.472674,-1.66062 -2.031506,-3.30364 -1.764559,-5.18797 0.282295,-1.99267 1.57002,-4.27449 3.296136,-5.84067 0.595471,-0.5403 1.589654,-1.66116 1.977028,-2.22893 0.517019,-0.75778 0.932022,-1.9068 0.935867,-2.59113 0.0029,-0.5209 -0.696329,-1.48582 -1.444674,-1.99356 -0.483207,-0.32784 -0.808053,-0.40612 -1.496251,-0.36054 -2.162975,0.14326 -2.993272,0.88437 -2.887644,2.57747 0.07389,1.18429 0.845751,2.24497 1.632021,2.24269 0.7395,-0.002 1.70282,-0.91903 1.701416,-1.6194 -0.0011,-0.54448 -0.426286,-1.2343 -0.822021,-1.33362 -0.216725,-0.0544 -0.537337,0.10109 -0.740181,0.35896 -0.168294,0.21396 -0.207515,0.79611 -0.06335,0.94028 0.147896,0.1479 0.416421,0.0937 0.639035,-0.12887 0.23774,-0.23774 0.345091,-0.22408 0.345091,0.0439 0,0.6272 -0.765259,1.0367 -1.239794,0.66344 -0.458121,-0.36036 -0.544945,-1.09284 -0.194955,-1.64472 0.309754,-0.48843 0.5938,-0.65899 1.147899,-0.68926 0.396422,-0.0217 0.501754,-5.5e-4 0.713034,0.14291 0.650901,0.44196 0.951049,1.47405 0.669218,2.30118 -0.170784,0.50122 -0.875753,1.19956 -1.323093,1.31066 -0.455711,0.11317 -1.29406,0.10472 -1.582874,-0.016 -0.471661,-0.19707 -1.100119,-1.06258 -1.336399,-1.84048 -0.211326,-0.69575 -0.171867,-1.71623 0.08769,-2.26795 0.475678,-1.01109 1.693736,-1.62863 3.23028,-1.63772 l 0.420608,-0.002 -0.92869,-0.9449 c -1.62104,-1.64934 -2.096857,-2.24074 -2.493464,-3.09914 -0.135292,-0.29282 -0.291306,-0.74623 -0.346697,-1.00758 -0.128999,-0.60864 -0.129852,-1.6523 -0.0017,-2.13353 0.231075,-0.86801 1.052014,-1.99596 1.762546,-2.42168 0.610213,-0.36562 1.145028,-0.46834 2.268357,-0.43569 0.860813,0.025 1.0112,0.0487 1.374504,0.21674 1.013252,0.46854 1.830724,1.94006 1.7512,3.15231 -0.07898,1.20395 -0.980968,2.12111 -2.284525,2.32296 -1.369794,0.2121 -2.241722,-0.38735 -2.318368,-1.59388 -0.03981,-0.62667 0.05142,-0.98252 0.379509,-1.48029 0.493156,-0.74821 1.247846,-1.11861 1.888251,-0.92674 0.332178,0.0995 0.820689,0.62709 0.923545,0.99738 0.179262,0.64537 0.03341,1.4101 -0.329908,1.72979 -0.253297,0.22289 -0.734743,0.41837 -1.030373,0.41837 -0.246334,0 -0.33709,-0.042 -0.527668,-0.24405 -0.239175,-0.2536 -0.321527,-0.50479 -0.321527,-0.98074 0,-0.46873 0.323724,-0.91462 0.664028,-0.91462 0.118759,0 0.113207,0.0236 -0.05152,0.21941 -0.155182,0.18443 -0.184623,0.28993 -0.184623,0.66161 0,0.79031 0.338529,0.98073 0.867059,0.48772 0.277134,-0.2585 0.292492,-0.2951 0.321697,-0.76662 0.03565,-0.5756 -0.04526,-0.7798 -0.388417,-0.98021 -0.332217,-0.19403 -0.662134,-0.11428 -1.066272,0.25773 -0.388766,0.35786 -0.589829,0.79063 -0.589829,1.26958 0,0.45792 0.131063,0.76002 0.451979,1.04178 0.648924,0.56977 1.563932,0.44489 2.423553,-0.33076 0.411276,-0.37109 0.566979,-0.73158 0.603271,-1.3967 0.04037,-0.73981 -0.05723,-1.07675 -0.468358,-1.61688 -0.494862,-0.65015 -1.008528,-0.91311 -1.88585,-0.96544 -0.868885,-0.0518 -1.736055,0.0681 -2.202745,0.30457 -0.521605,0.26432 -0.995891,0.77065 -1.30195,1.38992 -0.366542,0.74164 -0.445589,1.28504 -0.305032,2.0969 0.143746,0.83027 0.459552,1.46441 1.177571,2.36456 0.634906,0.79595 0.79558,0.95411 2.425882,2.38793 1.880277,1.65366 2.298664,1.98844 2.807888,2.24674 1.191578,0.60444 3.929157,2.56996 5.554821,3.98824 0.8558,0.74663 1.491138,1.45942 2.432926,2.72949 1.43075,1.92949 1.970238,3.06043 2.541126,5.327 0.118549,0.47067 0.395186,1.33712 0.61475,1.92546 0.680901,1.82452 0.810365,2.07522 1.451603,2.81092 0.504368,0.57868 1.030983,0.99695 1.75948,1.39751 0.789925,0.43433 1.320058,0.55968 2.189881,0.51779 0.622579,-0.03 0.751288,-0.0611 1.229984,-0.29772 0.658079,-0.32524 1.141131,-0.80077 1.468107,-1.44526 0.222185,-0.43794 0.243372,-0.53398 0.240465,-1.08993 -0.0082,-1.57 -0.491351,-2.64997 -1.387425,-3.10132 -0.499214,-0.25145 -1.222993,-0.41923 -1.654201,-0.38347 -0.787749,0.0653 -1.643216,0.7129 -1.878822,1.42225 -0.349575,1.05247 0.277955,2.30729 1.227816,2.45516 0.410702,0.0639 0.728088,-0.0591 1.070616,-0.41488 0.375947,-0.39054 0.450143,-0.54432 0.450143,-0.93295 0,-0.26787 -0.03477,-0.34851 -0.21604,-0.50104 -0.551015,-0.46365 -1.565421,-0.25523 -1.67798,0.34476 -0.113984,0.60759 0.17915,0.90594 0.741356,0.75456 0.159984,-0.0431 0.310174,-0.10955 0.333756,-0.1477 0.0632,-0.10227 0.177086,-0.0843 0.177086,0.0279 0,0.0535 -0.132695,0.18923 -0.294878,0.30162 -0.719007,0.49828 -1.417049,0.0504 -1.416379,-0.90886 5.21e-4,-0.74507 0.444326,-1.13415 1.353715,-1.1868 0.707237,-0.0409 1.111658,0.11996 1.401183,0.55746 0.415348,0.62764 0.179595,1.69204 -0.4927,2.22451 -0.368404,0.29178 -0.711957,0.4058 -1.228419,0.40769 -0.788544,0.003 -1.430858,-0.46388 -1.83922,-1.33653 -0.190732,-0.40758 -0.221143,-0.5538 -0.224726,-1.08048 -0.0051,-0.74929 0.183397,-1.20958 0.721643,-1.76217 0.544898,-0.55943 0.984331,-0.75198 1.805841,-0.79128 0.372613,-0.0178 0.870025,0.003 1.105359,0.0474 1.544006,0.28781 2.385758,1.48911 2.507958,3.57922 0.06834,1.16884 -0.17543,1.85569 -0.961557,2.70933 -0.781578,0.84871 -1.583873,1.11277 -3.179632,1.04651 -0.705235,-0.0293 -0.953876,-0.0706 -1.361935,-0.22618 -1.145598,-0.43687 -2.138467,-1.24394 -2.848059,-2.3151 -0.765968,-1.15627 -1.424288,-2.76928 -1.749823,-4.28741 -0.0799,-0.37262 -0.245456,-0.98235 -0.367902,-1.35496 -0.270933,-0.82446 -1.047735,-2.46851 -1.124992,-2.38096 -0.03071,0.0348 -0.111789,0.33824 -0.180179,0.67431 -0.146348,0.71915 -0.113776,0.84276 0.425237,1.61383 0.178533,0.25539 0.470867,0.72212 0.649631,1.03717 0.386211,0.68064 0.384592,0.71031 -0.09333,1.71009 l -0.331423,0.69332 0.275006,0.44554 c 0.417278,0.67605 0.53217,0.94999 0.53217,1.26888 0,0.59794 -0.613351,1.40486 -1.189453,1.56483 -0.380287,0.1056 -0.488103,0.0967 -0.808696,-0.0669 -0.461481,-0.23543 -0.625739,-0.72016 -0.360831,-1.06483 l 0.133821,-0.17411 -0.0358,0.31758 c -0.0279,0.24757 -0.0044,0.35634 0.106578,0.4934 0.456809,0.56413 1.685615,-0.27168 1.557759,-1.05957 -0.02253,-0.13885 -0.209183,-0.52669 -0.414779,-0.86187 -0.476352,-0.77658 -0.479416,-0.93564 -0.0327,-1.69761 0.423085,-0.72167 0.45644,-0.89592 0.246343,-1.28688 -0.174221,-0.32421 -1.06228,-1.50589 -1.134362,-1.50943 -0.02327,-10e-4 -0.06246,0.50336 -0.08709,1.12112 -0.02463,0.61775 -0.09396,1.40375 -0.154076,1.74667 -0.28237,1.61074 -1.492132,3.4747 -2.802509,4.31801 -0.530142,0.34118 -1.97574,0.96428 -2.694804,1.16156 -2.175646,0.59688 -4.148366,0.50909 -5.380547,-0.23943 -0.215296,-0.13079 -0.467845,-0.28415 -0.56122,-0.3408 -0.13276,-0.0806 -0.176855,-0.0834 -0.202258,-0.0133 -0.06023,0.1664 -0.535134,0.69333 -0.786787,0.87298 -0.209502,0.14956 -0.343094,0.18128 -0.829105,0.19687 -0.378944,0.0122 -0.653371,-0.0155 -0.793303,-0.0801 z m 7.656844,-0.72106 c 1.013748,-0.20254 2.1612,-0.75286 3.370428,-1.61645 1.410395,-1.00727 2.081262,-2.06672 2.409586,-3.8053 0.280344,-1.48451 0.16609,-4.01768 -0.222634,-4.93611 -0.07644,-0.1806 -0.0885,-0.14392 -0.133977,0.4077 -0.07781,0.94368 -0.390841,1.61555 -1.025109,2.2002 -0.56368,0.51958 -0.82807,0.61669 -1.679026,0.61669 -0.58998,0 -0.799353,-0.0276 -0.987187,-0.13006 -0.131118,-0.0715 -0.249784,-0.11867 -0.263702,-0.10475 -0.01392,0.0139 0.01057,0.23473 0.05441,0.49069 0.06715,0.39203 0.06012,0.54339 -0.04462,0.96035 -0.265198,1.05576 -1.019852,2.01251 -1.947687,2.46928 -0.452218,0.22262 -0.525564,0.23673 -1.231156,0.23673 -0.697211,0 -0.784607,-0.0163 -1.235338,-0.22975 -0.66339,-0.31421 -1.227393,-0.88969 -1.58839,-1.6207 -0.255564,-0.51752 -0.279909,-0.61675 -0.279909,-1.14102 0,-0.4966 0.02891,-0.63129 0.213941,-0.99659 0.268966,-0.53103 0.821942,-1.10394 1.27645,-1.32246 0.402517,-0.19353 1.039485,-0.23026 1.519605,-0.0876 0.443277,0.1317 0.883462,0.50105 1.124541,0.94357 0.185202,0.33996 0.212343,0.4625 0.212671,0.9602 4.37e-4,0.66253 -0.155334,1.06235 -0.57078,1.46501 -0.239978,0.2326 -0.282018,0.24651 -0.744883,0.24651 -0.44748,0 -0.510319,-0.0188 -0.715705,-0.21394 -0.35656,-0.3388 -0.524796,-0.72423 -0.529169,-1.21233 -0.0029,-0.32123 0.03172,-0.47526 0.138794,-0.61797 0.299556,-0.39925 0.791996,-0.53123 1.137478,-0.30486 0.208304,0.13648 0.396175,0.58508 0.394553,0.9421 l -0.0012,0.26599 -0.317755,-0.33874 c -0.343562,-0.36625 -0.533243,-0.41806 -0.813064,-0.22206 -0.392202,0.2747 0.09537,1.16696 0.637682,1.16696 0.323121,0 0.491354,-0.11818 0.642677,-0.45146 0.389272,-0.85736 -0.07891,-1.95754 -0.930636,-2.18689 -1.216484,-0.32756 -2.519242,1.59199 -1.920234,2.82937 0.323035,0.6673 1.504476,1.49536 2.242153,1.57149 0.338692,0.035 0.448778,0.0111 0.841754,-0.18235 0.622092,-0.30626 1.344008,-0.98249 1.59371,-1.49286 0.168961,-0.34535 0.202885,-0.51567 0.225751,-1.13337 0.02369,-0.64 0.0036,-0.80019 -0.168067,-1.33928 -0.264622,-0.83104 -0.648354,-1.32299 -1.517956,-1.94604 -1.153007,-0.8261 -2.828688,-0.81433 -4.542811,0.0319 -0.790508,0.39026 -0.854893,0.48003 -1.42897,1.99242 -0.600049,1.5808 -0.656671,2.37526 -0.245199,3.44039 0.431092,1.11592 1.588748,2.96884 2.199697,3.5208 0.554955,0.50136 1.253953,0.83662 2.043142,0.97994 0.479963,0.0872 2.157886,0.0242 2.806143,-0.10535 z m 3.438832,-7.77835 c 0.995781,-0.5046 1.424662,-1.44877 1.440028,-3.17019 0.0091,-1.01839 -0.09369,-1.51155 -0.484254,-2.32357 -0.20333,-0.42274 -0.380105,-0.63895 -1.037327,-1.26872 -0.435726,-0.41753 -1.056107,-0.9652 -1.378626,-1.21704 -0.58551,-0.4572 -3.076704,-2.10808 -3.181111,-2.10808 -0.03033,0 -0.0078,0.13638 0.05001,0.30308 0.136554,0.39358 0.07674,0.93911 -0.19372,1.76675 -0.403338,1.23426 -0.75639,1.74198 -2.463342,3.54254 -0.629535,0.66406 -1.21994,1.31317 -1.31201,1.44247 l -0.1674,0.23509 0.23341,-0.0513 c 0.128375,-0.0282 0.558324,-0.20454 0.955442,-0.39187 0.636647,-0.30033 0.749136,-0.38165 0.951216,-0.68768 0.126051,-0.19089 0.278004,-0.5365 0.337673,-0.76802 0.151559,-0.58804 0.256534,-0.71938 0.657878,-0.82307 0.623333,-0.16104 0.729337,-0.22907 1.130281,-0.72531 0.225091,-0.27859 0.51932,-0.55378 0.679417,-0.63546 0.25777,-0.1315 0.300238,-0.13483 0.487118,-0.0382 0.12065,0.0624 0.249466,0.21768 0.31366,0.37811 0.115965,0.28983 0.08707,0.68507 -0.04665,0.63807 -0.04414,-0.0155 -0.07064,-0.0819 -0.05888,-0.14745 0.02828,-0.15772 -0.250501,-0.54344 -0.392767,-0.54344 -0.138636,0 -0.236917,0.12339 -0.568013,0.71313 -0.360092,0.64139 -0.422226,0.7002 -0.798161,0.75538 -0.534044,0.0784 -0.607479,0.13199 -0.867516,0.63329 -0.136102,0.26237 -0.351755,0.59989 -0.479228,0.75003 -0.127473,0.15014 -0.231769,0.28904 -0.231769,0.30868 0,0.0196 0.232661,0.0741 0.517023,0.12108 0.59251,0.0978 1.378973,0.38436 1.813958,0.66087 0.164201,0.10438 0.535604,0.39653 0.82534,0.64922 l 0.526794,0.45945 0.328765,-0.45333 c 0.419391,-0.57829 0.778204,-0.81856 1.315672,-0.88101 1.002431,-0.11647 1.495534,0.23227 1.513118,1.07013 0.0095,0.4512 -0.07633,0.69599 -0.354815,1.01237 -0.453031,0.51467 -1.090337,0.60145 -1.511739,0.20584 -0.143289,-0.13452 -0.195899,-0.25255 -0.195321,-0.43819 l 7.91e-4,-0.25409 0.182661,0.23177 c 0.245383,0.31135 0.568487,0.31788 0.909614,0.0184 0.278433,-0.24447 0.356254,-0.51437 0.25453,-0.88278 -0.08085,-0.29281 -0.237224,-0.40151 -0.577079,-0.40113 -0.261128,3e-4 -0.521422,0.14167 -0.944109,0.51277 -0.256465,0.22516 -0.282357,0.28139 -0.310826,0.67497 -0.04897,0.67702 0.173819,0.99013 0.856139,1.2032 0.481222,0.15027 0.872623,0.12668 1.274127,-0.0768 z m 3.323212,-2.48563 c 0.03843,-0.54457 0.02702,-0.62447 -0.124801,-0.87374 -0.216346,-0.35522 -1.028813,-1.32568 -1.453619,-1.73629 l -0.332006,-0.32091 0.118748,0.28525 c 0.06531,0.15689 0.414228,0.89499 0.775368,1.64021 0.361141,0.74523 0.699492,1.46219 0.751891,1.59324 0.134016,0.33519 0.211429,0.16312 0.264419,-0.58776 z M 187.5547,292.69641 c -0.27277,-0.12423 -0.6499,-0.48606 -0.9026,-0.86598 -0.10093,-0.15175 -0.13732,-0.16487 -0.2496,-0.09 -0.36156,0.241 -1.02603,0.59731 -1.28295,0.68796 -1.29793,0.45793 -3.23366,0.39293 -4.94048,-0.16592 -0.79302,-0.25965 -1.84089,-0.72569 -2.3091,-1.02696 -1.42388,-0.91623 -2.61005,-2.76406 -2.89403,-4.50835 -0.0751,-0.4612 -0.22292,-2.21665 -0.20678,-2.45529 0.0266,-0.39352 -0.0339,-0.36224 -0.48749,0.25196 -0.25974,0.3517 -0.55561,0.80868 -0.65749,1.01551 l -0.18522,0.37605 0.41043,0.80062 c 0.22574,0.44034 0.40929,0.88464 0.40789,0.98733 -0.001,0.10973 -0.1442,0.37437 -0.3461,0.64183 -0.41417,0.54864 -0.61657,0.99118 -0.55873,1.22164 0.13459,0.53623 0.91586,1.13018 1.31347,0.99855 0.25742,-0.0852 0.53606,-0.49857 0.49188,-0.72968 -0.032,-0.16766 -0.0286,-0.16975 0.0664,-0.0399 0.18199,0.24888 0.12318,0.53153 -0.17201,0.82672 -0.14973,0.14973 -0.35853,0.29389 -0.464,0.32037 -0.49419,0.12403 -1.19491,-0.25409 -1.49048,-0.80427 -0.35358,-0.65815 -0.32371,-1.03954 0.14668,-1.87321 0.14385,-0.25495 0.28299,-0.5154 0.3092,-0.57878 0.0289,-0.0699 -0.0762,-0.36408 -0.26743,-0.74827 -0.49386,-0.99223 -0.43882,-1.27137 0.52323,-2.65333 0.25435,-0.36536 0.48787,-0.77696 0.51892,-0.91467 0.0528,-0.23427 -0.0879,-1.41865 -0.17948,-1.51021 -0.058,-0.058 -0.21893,0.18345 -0.49205,0.7381 -0.4238,0.86067 -0.67085,1.55435 -1.00782,2.82981 -0.44972,1.70227 -0.70213,2.43996 -1.10677,3.23474 -1.34037,2.63265 -2.99063,3.80803 -5.34873,3.8096 -1.66281,0.001 -2.68136,-0.59694 -3.36444,-1.97544 l -0.30536,-0.61625 0.003,-0.96811 c 0.004,-1.11134 0.11226,-1.61646 0.50949,-2.37417 0.27215,-0.51914 0.64008,-0.86944 1.21812,-1.15978 0.51574,-0.25904 1.02081,-0.34455 1.81045,-0.30653 0.60061,0.0289 0.76093,0.0651 1.15988,0.26146 0.52515,0.25854 0.87103,0.61883 1.20571,1.25596 0.20152,0.38364 0.22461,0.49056 0.22329,1.03405 -0.001,0.50912 -0.0328,0.67386 -0.19746,1.02906 -0.42994,0.92773 -1.05553,1.39594 -1.86415,1.3952 -0.66211,-6.1e-4 -0.94237,-0.10874 -1.35727,-0.52364 -0.41072,-0.41072 -0.60775,-0.86354 -0.60757,-1.39631 1.4e-4,-0.41189 0.17346,-0.75431 0.52344,-1.0341 0.26602,-0.21266 0.29531,-0.21901 1.01077,-0.21901 0.63583,0 0.76443,0.0204 0.93837,0.14919 0.67651,0.5007 0.75302,1.41923 0.15814,1.8985 -0.32998,0.26585 -0.77482,0.29229 -1.02132,0.0607 -0.21651,-0.2034 -0.44149,-0.62594 -0.37088,-0.69656 0.0306,-0.0306 0.0841,-0.005 0.11883,0.0571 0.19543,0.34922 0.32711,0.43806 0.64285,0.4337 0.36877,-0.005 0.56697,-0.18808 0.56697,-0.52347 0,-0.64652 -0.64488,-0.99122 -1.44085,-0.77015 -0.32005,0.0889 -0.55592,0.36833 -0.55592,0.6586 0,0.53188 0.64676,1.29881 1.16643,1.38314 0.42947,0.0697 0.72528,-0.0313 1.11336,-0.38025 0.52041,-0.4679 0.59908,-0.65212 0.60414,-1.41474 0.004,-0.57884 -0.0154,-0.6752 -0.19564,-0.9819 -0.2501,-0.42547 -0.79002,-0.85811 -1.26977,-1.01745 -0.79109,-0.26276 -2.07584,0.0635 -2.69621,0.68472 -0.5637,0.56448 -0.9578,2.03419 -0.80689,3.00916 0.15208,0.98255 0.77277,1.79527 1.71706,2.24832 0.45904,0.22023 0.60912,0.25545 1.21237,0.2845 0.80009,0.0385 1.33066,-0.0712 2.02371,-0.41855 1.08751,-0.54504 2.10912,-1.51001 2.56676,-2.42445 0.36609,-0.73152 1.25622,-3.04918 1.33928,-3.48714 0.21339,-1.12525 0.45299,-1.82116 1.07678,-3.12762 0.69671,-1.45918 2.3188,-3.70441 3.44962,-4.77482 1.53266,-1.45079 4.58864,-3.70249 6.15119,-4.53231 0.43227,-0.22956 0.90565,-0.57287 1.45352,-1.05411 0.44685,-0.39253 1.23693,-1.08228 1.75572,-1.53278 1.47786,-1.28335 2.33331,-2.27294 2.76615,-3.19992 0.31698,-0.67884 0.41067,-1.16153 0.38077,-1.96163 -0.0227,-0.60632 -0.053,-0.73488 -0.29028,-1.23189 -0.57929,-1.21316 -1.54299,-1.76461 -3.07866,-1.76165 -1.11424,0.002 -1.82826,0.29436 -2.32414,0.95114 -0.39321,0.52081 -0.52045,0.90117 -0.52835,1.57938 -0.008,0.65979 0.1208,0.97246 0.57414,1.39725 0.415,0.38885 0.66489,0.53892 1.11561,0.66994 0.7072,0.20559 1.30308,0.0114 1.60307,-0.52231 0.12358,-0.21988 0.15774,-0.39581 0.15774,-0.81241 0,-0.68474 -0.18389,-1.06223 -0.68123,-1.39844 -0.30392,-0.20545 -0.39122,-0.23184 -0.63696,-0.19254 -0.46237,0.0739 -0.74821,0.46755 -0.74951,1.0321 -7.5e-4,0.32953 0.2815,0.78453 0.58168,0.93767 0.49472,0.25238 0.70157,0.0505 0.70157,-0.68467 0,-0.46175 -0.10889,-0.72967 -0.31286,-0.76977 -0.0958,-0.0188 -0.065,-0.0332 0.0843,-0.0393 0.45998,-0.019 0.78591,0.5794 0.68627,1.25997 -0.0383,0.2619 -0.10975,0.39315 -0.3277,0.6023 -0.23991,0.23022 -0.32451,0.26743 -0.60815,0.26743 -0.42132,0 -0.85234,-0.24629 -1.12855,-0.64486 -0.64951,-0.93724 0.0437,-2.56425 1.09247,-2.56425 0.59277,0 1.37052,0.51728 1.652,1.09874 0.19716,0.40727 0.31073,1.1225 0.25294,1.59288 -0.0541,0.44005 -0.3861,0.98129 -0.72072,1.17487 -0.59858,0.34627 -1.69701,0.30811 -2.49922,-0.0868 -1.01929,-0.50179 -1.62033,-1.72553 -1.35541,-2.75963 0.28384,-1.10795 0.97372,-2.04822 1.77387,-2.41772 0.43583,-0.20126 0.47897,-0.20684 1.58901,-0.20549 1.09712,10e-4 1.16,0.009 1.63443,0.20852 0.8714,0.36581 1.76141,1.43335 2.12692,2.5512 0.20655,0.6317 0.20452,1.61573 -0.005,2.35915 -0.33182,1.17815 -0.91679,2.018 -2.5584,3.67312 l -1.12678,1.13605 0.67748,0.0779 c 1.57383,0.18103 2.44496,0.70384 2.97659,1.78639 0.58211,1.18534 -0.18022,3.48757 -1.31626,3.97504 -0.27787,0.11923 -1.12071,0.12866 -1.56229,0.0175 -0.41638,-0.10484 -1.02324,-0.65349 -1.26954,-1.14776 -0.3621,-0.72663 -0.16058,-1.79499 0.44608,-2.36488 0.3973,-0.37323 1.24806,-0.34887 1.70087,0.0487 0.67993,0.59698 0.70414,1.62239 0.0485,2.05463 -0.3419,0.22542 -0.86573,0.14576 -1.02734,-0.15621 -0.10867,-0.20304 -0.15444,-0.68902 -0.0698,-0.74132 0.0363,-0.0224 0.13784,0.0564 0.22564,0.17513 0.16941,0.22914 0.45805,0.29005 0.61775,0.13035 0.0471,-0.0471 0.0856,-0.23849 0.0856,-0.4254 0,-0.27841 -0.04,-0.38538 -0.22132,-0.5919 -0.3038,-0.346 -0.65325,-0.35333 -0.96846,-0.0203 -0.32305,0.34131 -0.40224,0.53948 -0.39794,0.99587 0.006,0.66989 0.43412,1.25365 1.15271,1.57294 0.79702,0.35412 1.58833,-0.17776 1.98046,-1.33116 0.16753,-0.49276 0.16975,-1.68432 0.004,-2.04915 -0.32628,-0.71737 -0.79187,-1.00657 -1.93517,-1.20202 -1.0166,-0.1738 -1.29006,-0.17831 -1.73123,-0.0285 -0.64,0.21728 -1.41398,0.88955 -1.77564,1.54229 -0.18397,0.33203 -0.20682,0.44026 -0.19962,0.94546 0.01,0.67719 0.21929,1.29346 0.70322,2.06722 0.3925,0.62758 0.72508,1.01548 2.01851,2.35421 0.56842,0.58834 1.20002,1.2783 1.40354,1.53325 1.31892,1.65215 2.10653,3.72161 2.10653,5.53496 0,1.39596 -0.66632,2.85602 -1.90873,4.1825 -0.27912,0.298 -0.43223,0.51605 -0.40059,0.5705 0.38485,0.66246 0.73113,0.92244 1.23885,0.9301 0.76266,0.0115 1.08417,-0.59982 0.5451,-1.03648 -0.22192,-0.17976 -0.52181,-0.15804 -0.71637,0.0519 -0.19138,0.2065 -0.25584,0.22309 -0.25584,0.0658 0,-0.0618 0.0938,-0.20626 0.20845,-0.32091 0.17293,-0.17294 0.26711,-0.20841 0.55268,-0.20819 0.58067,4.5e-4 0.99755,0.35356 1.06992,0.90626 0.0447,0.34108 -0.18086,0.69854 -0.58518,0.92753 -0.36741,0.2081 -1.14277,0.22278 -1.56679,0.0297 z m -2.74042,-0.71372 c 1.12485,-0.35884 2.09843,-1.3863 3.11693,-3.28941 0.62879,-1.17492 0.752,-1.56789 0.74905,-2.389 -0.002,-0.62951 -0.0335,-0.80513 -0.26636,-1.49759 -0.14509,-0.43144 -0.41863,-1.11081 -0.60787,-1.50969 -0.39037,-0.82282 -0.51435,-0.9348 -1.44578,-1.30576 -1.64422,-0.65484 -2.94822,-0.61681 -4.10015,0.11958 -1.18206,0.75565 -1.72977,1.7913 -1.72977,3.27072 0,0.35852 0.0365,0.76094 0.0812,0.89427 0.17865,0.5336 1.11773,1.50258 1.773,1.82943 0.41857,0.20879 1.02512,0.16548 1.59219,-0.11369 0.63923,-0.31469 1.26842,-0.90361 1.47268,-1.37843 0.30474,-0.70839 0.1103,-1.5489 -0.50692,-2.19124 -0.67578,-0.70329 -1.51042,-0.77356 -2.06929,-0.17423 -0.46453,0.49816 -0.59331,1.03605 -0.37506,1.56655 0.28488,0.69244 0.79944,0.87622 1.22243,0.43659 0.12265,-0.12747 0.24387,-0.31656 0.26939,-0.4202 0.0577,-0.23442 -0.12167,-0.60382 -0.32449,-0.66819 -0.15929,-0.0506 -0.46881,0.11471 -0.62533,0.3339 -0.14733,0.20632 -0.29904,0.16219 -0.29904,-0.087 0,-0.48481 0.3783,-0.85222 0.87747,-0.85222 0.27683,0 0.53868,0.20617 0.72881,0.57384 0.24724,0.47811 -0.003,1.35536 -0.4898,1.71506 -0.30098,0.22251 -0.91288,0.27234 -1.23227,0.10033 -0.44692,-0.24068 -0.80256,-0.93141 -0.80815,-1.5696 -0.004,-0.48458 0.0927,-0.78615 0.39299,-1.22211 0.60483,-0.87819 1.61302,-1.09853 2.65209,-0.57959 0.41492,0.20722 0.88401,0.73301 1.16723,1.3083 0.20694,0.42037 0.22211,0.49941 0.19045,0.99264 -0.079,1.23101 -1.04517,2.45179 -2.25604,2.85057 -0.59174,0.19488 -1.56355,0.1323 -2.11193,-0.136 -1.24763,-0.61041 -2.22236,-2.34301 -1.96477,-3.49242 0.0427,-0.19031 0.0639,-0.3597 0.0471,-0.37642 -0.0167,-0.0167 -0.21546,0.0234 -0.44162,0.0891 -0.29068,0.0845 -0.58178,0.11059 -0.99319,0.089 -0.49879,-0.0262 -0.64757,-0.0664 -1.04057,-0.28132 -0.86773,-0.47453 -1.4697,-1.47862 -1.54616,-2.57901 -0.0213,-0.30607 -0.0643,-0.5307 -0.0956,-0.49919 -0.0313,0.0315 -0.1229,0.42393 -0.20349,0.87205 -0.29941,1.66479 -0.15418,4.28617 0.29972,5.40992 0.59457,1.47202 1.71822,2.55391 3.64272,3.50738 1.29964,0.64389 2.34778,0.8659 3.89814,0.82569 0.65806,-0.0171 1.01411,-0.0623 1.3601,-0.17264 z m -5.37896,-7.78078 c 0.45715,-0.22844 0.73844,-0.59368 0.73844,-0.95884 0,-0.27973 -0.23874,-0.68949 -0.54322,-0.93235 -0.41441,-0.33055 -0.53894,-0.38697 -0.86005,-0.3897 -0.42456,-0.004 -0.62081,0.2501 -0.57403,0.74203 0.0431,0.45336 0.34089,0.75303 0.74827,0.75303 0.21945,10e-6 0.30659,-0.047 0.49539,-0.26742 l 0.22909,-0.26743 0.003,0.22939 c 0.003,0.29783 -0.39042,0.70697 -0.7446,0.77342 -0.37164,0.0697 -0.6028,-0.0164 -0.93472,-0.34835 -0.56469,-0.56469 -0.6045,-1.45557 -0.0872,-1.95117 0.18071,-0.17314 0.27415,-0.20183 0.73262,-0.22498 0.28901,-0.0146 0.63581,0.01 0.77065,0.0544 0.33288,0.10987 0.79819,0.5209 1.02199,0.9028 0.10151,0.17321 0.21648,0.31492 0.2555,0.31492 0.039,0 0.25258,-0.16232 0.47459,-0.36071 0.84566,-0.7557 1.61305,-1.14744 2.52374,-1.28836 0.7651,-0.11839 0.73936,-0.0921 0.46189,-0.47258 -0.13582,-0.18626 -0.34697,-0.53802 -0.46923,-0.78169 -0.24472,-0.48774 -0.32828,-0.55329 -0.77834,-0.61057 -0.44163,-0.0562 -0.6152,-0.2011 -0.90768,-0.75769 -0.14299,-0.2721 -0.32028,-0.5493 -0.39397,-0.61599 -0.18428,-0.16677 -0.43197,-0.0899 -0.59399,0.1844 -0.18756,0.31751 -0.29851,0.16977 -0.15043,-0.20031 0.1561,-0.39014 0.43331,-0.51135 0.84238,-0.36833 0.21622,0.0756 0.39572,0.23144 0.7012,0.6088 0.37945,0.46874 0.4473,0.5191 0.89469,0.6641 0.61311,0.1987 0.76008,0.32202 0.86087,0.72231 0.11366,0.45138 0.40157,1.07911 0.55981,1.22057 0.10891,0.0974 1.26131,0.61914 1.75551,0.79487 0.25358,0.0902 0.10582,-0.11959 -0.67747,-0.96175 -1.92111,-2.06549 -2.31271,-2.55237 -2.71662,-3.37764 -0.45547,-0.93061 -0.64983,-1.7896 -0.54705,-2.4178 0.0381,-0.23292 0.0567,-0.43606 0.0414,-0.45141 -0.0348,-0.0348 -0.14909,0.0363 -1.64485,1.02393 -2.04383,1.3495 -3.72074,2.89626 -4.02964,3.7169 -0.41383,1.09943 -0.54689,2.36473 -0.34865,3.31539 0.25672,1.23105 1.17093,2.18456 2.1027,2.19308 0.26488,0.002 0.47798,-0.0541 0.78836,-0.20924 z m -4.50214,-1.80205 c 0.0831,-0.28842 0.47615,-1.22011 0.7145,-1.69369 0.32336,-0.64248 0.6879,-1.58006 0.63471,-1.63241 -0.0455,-0.0448 -0.17395,0.0935 -1.05515,1.13574 -0.71149,0.84151 -0.73706,0.91746 -0.57603,1.71071 0.13234,0.65189 0.19945,0.76605 0.28197,0.47965 z M 74.237569,292.46679 c -7.364924,-0.0321 -11.840642,-0.0777 -12.087637,-0.12322 -0.766967,-0.14129 -1.218015,-0.36308 -1.682195,-0.82717 -0.714256,-0.71411 -0.858582,-1.51564 -0.433017,-2.40483 0.21737,-0.45417 0.820911,-1.11981 1.187003,-1.30912 0.392676,-0.20307 1.055972,-0.22574 1.404352,-0.048 0.685289,0.34961 1.079393,1.19395 0.887924,1.90231 -0.15832,0.58572 -0.790634,1.0994 -1.357801,1.10305 -0.505621,0.003 -1.075968,-0.52328 -1.075968,-0.99331 0,-0.21468 0.188533,-0.5554 0.357306,-0.64573 0.171276,-0.0917 0.172461,-0.0828 0.02772,0.20733 -0.137609,0.27585 -0.08727,0.64482 0.112666,0.82576 0.07609,0.0688 0.284095,0.14162 0.462241,0.1617 0.308142,0.0347 0.339513,0.0209 0.644715,-0.2843 0.271163,-0.27117 0.320571,-0.36366 0.319247,-0.59763 -0.0021,-0.37716 -0.219922,-0.82785 -0.494536,-1.02339 -0.467647,-0.333 -1.272465,-0.0412 -1.710548,0.62019 -0.474789,0.7168 -0.33195,1.72224 0.326847,2.30067 0.409766,0.35978 0.795551,0.4952 1.680301,0.58981 1.215004,0.12993 95.234641,0.12708 96.401401,-0.003 0.97835,-0.10901 1.44796,-0.30435 1.80645,-0.75142 0.4198,-0.5235 0.62843,-1.33516 0.4825,-1.87709 -0.0934,-0.34684 -0.50018,-0.75327 -0.95466,-0.95383 -0.28501,-0.12578 -0.38049,-0.1379 -0.57657,-0.0732 -0.40762,0.13453 -0.82903,0.71965 -0.82903,1.15108 0,0.38054 0.55577,0.91996 0.94785,0.91996 0.44003,0 0.81759,-0.63117 0.62734,-1.04872 -0.12558,-0.27561 -0.0337,-0.28339 0.13222,-0.0112 0.3672,0.6023 -0.0287,1.38947 -0.73906,1.46954 -0.43255,0.0488 -0.69308,-0.0708 -1.07177,-0.49205 -0.56082,-0.62377 -0.54173,-1.35348 0.0544,-2.08103 0.4794,-0.58504 1.14711,-0.71153 1.87486,-0.35519 0.73832,0.36152 1.22294,1.06274 1.28917,1.86533 0.0499,0.60462 -0.0471,0.95596 -0.41662,1.50932 -0.35859,0.53701 -0.7994,0.87462 -1.41478,1.08358 l -0.46353,0.1574 -13.4426,0.0478 c -17.14597,0.061 -57.094424,0.0546 -72.276224,-0.0115 z m -39.792926,-30.9347 c -0.591555,-0.15806 -1.04317,-0.523 -1.312752,-1.06082 -0.234242,-0.46732 -0.496396,-1.54094 -0.586584,-2.40228 -0.112286,-1.0724 -0.01227,-181.70432 0.115892,-209.309913 0.03811,-8.207818 0.07234,-9.274577 0.315547,-9.832949 0.459897,-1.055866 1.345842,-1.492422 2.692851,-1.326923 0.723868,0.08894 1.141102,0.266097 1.580482,0.67108 0.462736,0.426511 0.653268,0.854698 0.653268,1.468107 0,0.599023 -0.128322,0.892764 -0.582452,1.333282 -0.388118,0.376485 -0.73009,0.520398 -1.236593,0.520398 -0.891354,0 -1.602894,-0.7614 -1.599447,-1.711523 0.0025,-0.687093 0.37709,-1.136953 0.996279,-1.196449 0.277099,-0.02663 0.387709,-0.0017 0.570912,0.128776 0.340815,0.242681 0.523038,0.800606 0.381745,1.16881 -0.06344,0.165325 -0.225385,0.137526 -0.2776,-0.04765 -0.112772,-0.399942 -0.212394,-0.566644 -0.395086,-0.661117 -0.177008,-0.09154 -0.213937,-0.08814 -0.36907,0.03388 -0.09481,0.07458 -0.214974,0.264652 -0.267032,0.422387 -0.08362,0.253387 -0.07892,0.330495 0.04038,0.662011 0.304497,0.846162 1.191984,0.947869 1.824365,0.209074 0.576407,-0.673402 0.319197,-1.677019 -0.562166,-2.193532 -0.30015,-0.1759 -0.425883,-0.202591 -1.054881,-0.223936 -0.667961,-0.02267 -0.739434,-0.01122 -1.105897,0.177106 -0.459733,0.236259 -0.739721,0.599237 -0.89928,1.165828 -0.200302,0.711272 -0.233207,6.119184 -0.23712,38.971059 -0.0021,17.610864 -0.03974,64.399644 -0.08365,103.975054 -0.08044,72.49928 -0.0757,74.82672 0.155942,76.66199 0.124103,0.98323 0.486089,1.52534 1.170637,1.75314 0.381757,0.12704 1.360576,0.12599 1.675867,-0.002 0.931584,-0.37759 1.382183,-1.09078 1.18047,-1.8684 -0.109777,-0.4232 -0.326049,-0.67494 -0.739556,-0.86082 -0.912627,-0.41024 -1.71718,0.4588 -1.327163,1.43354 0.235787,0.58929 0.957563,0.34138 0.957563,-0.3289 0,-0.12855 0.02712,-0.23373 0.06026,-0.23373 0.13128,0 0.296307,0.2732 0.296307,0.49052 0,0.5109 -0.434991,0.93681 -1.013553,0.99241 -0.329788,0.0317 -0.358789,0.0196 -0.625543,-0.26082 -0.316617,-0.33284 -0.389427,-0.59235 -0.343671,-1.22492 0.07712,-1.06622 1.217445,-1.77919 2.228225,-1.39317 0.362363,0.13838 0.906728,0.68611 1.069805,1.07641 0.176234,0.42179 0.144608,1.0799 -0.07287,1.51632 -0.235511,0.4726 -0.785,0.966 -1.283585,1.15254 -0.42954,0.16071 -1.623438,0.2542 -1.991245,0.15593 z m 151.648137,-0.0324 c -0.52821,-0.12313 -0.77268,-0.26299 -1.12182,-0.64176 -0.83444,-0.90526 -0.87708,-1.91652 -0.11637,-2.76018 0.61506,-0.68214 1.57653,-0.76734 2.2636,-0.20059 0.52765,0.43525 0.76849,1.33696 0.51752,1.93761 -0.11294,0.27031 -0.47653,0.59858 -0.73478,0.6634 -0.31921,0.0801 -0.72073,-0.0951 -0.92484,-0.40348 -0.23821,-0.35996 -0.30408,-0.85444 -0.13277,-0.99662 0.10727,-0.089 0.13444,-0.0848 0.22152,0.0343 0.0546,0.0747 0.0992,0.19228 0.0992,0.26138 0,0.0691 0.0372,0.20738 0.0828,0.30728 0.0676,0.14846 0.13248,0.18164 0.35493,0.18164 0.3545,0 0.50784,-0.2194 0.5127,-0.73355 0.004,-0.45058 -0.15916,-0.78981 -0.47248,-0.98086 -0.29429,-0.17943 -0.5709,-0.17649 -0.95653,0.0102 -0.45174,0.21869 -0.68342,0.55813 -0.71928,1.05384 -0.0489,0.67606 0.27674,1.21641 0.93977,1.5594 0.31309,0.16196 0.45654,0.1894 1.00692,0.19261 0.80453,0.005 1.18036,-0.10692 1.52684,-0.4534 0.47628,-0.47628 0.50367,-0.64168 0.62115,-3.75036 0.0883,-2.3361 0.0988,-5.80581 0.0659,-21.6793 -0.0216,-10.39394 -0.055,-57.35921 -0.0743,-104.36728 -0.0193,-47.00806 -0.0534,-86.736801 -0.0757,-88.286086 -0.0463,-3.210748 -0.0618,-3.314522 -0.56855,-3.821317 -0.36754,-0.367542 -0.65444,-0.45708 -1.45963,-0.455528 -0.90682,0.0017 -1.51134,0.333967 -1.8682,1.026699 -0.53168,1.032093 0.67509,2.346851 1.59023,1.732526 0.363,-0.243681 0.52375,-0.588781 0.46299,-0.993978 -0.12718,-0.848056 -0.83993,-0.947572 -0.94924,-0.132536 -0.0637,0.475118 -0.37699,0.334361 -0.37653,-0.169183 7.2e-4,-0.779697 0.92267,-1.260607 1.49441,-0.779519 0.3264,0.274652 0.43079,0.52981 0.43079,1.053023 0,0.568203 -0.0617,0.738344 -0.40632,1.119756 -0.69531,0.769625 -1.80306,0.752888 -2.49902,-0.03776 -0.60576,-0.688183 -0.67401,-1.568061 -0.17927,-2.311313 0.47586,-0.714897 1.34244,-1.10309 2.47844,-1.110246 0.55187,-0.0035 0.69923,0.02275 1.05144,0.187146 0.45611,0.21289 0.70956,0.452095 0.92918,0.876958 0.36861,0.713104 0.34702,-0.373503 0.41096,20.680908 0.10239,33.71138 0.16821,196.63029 0.0801,198.22378 -0.0822,1.48558 -0.20703,2.26738 -0.44981,2.81622 -0.19517,0.44122 -0.74859,0.99166 -1.10329,1.09736 -0.42294,0.12604 -1.50538,0.15312 -1.95261,0.0489 z M 35.60566,37.244655 c -0.795092,-0.145459 -1.455956,-0.601286 -2.014783,-1.389682 -0.852789,-1.203122 -1.091732,-2.378858 -0.752785,-3.704129 0.287383,-1.123656 0.914486,-2.01924 2.655315,-3.792136 0.580241,-0.590928 1.054923,-1.08834 1.054848,-1.105359 -7.4e-5,-0.01702 -0.232734,-0.03931 -0.517022,-0.04954 -1.527134,-0.05495 -2.552214,-0.602666 -3.060582,-1.635309 -0.634387,-1.288622 -0.09517,-3.314792 1.062744,-3.993374 0.303744,-0.178005 0.401545,-0.197241 0.980488,-0.192844 0.545019,0.0041 0.698155,0.033 1.004182,0.189225 0.738877,0.377204 1.172646,1.078902 1.17145,1.895028 -0.0014,0.981218 -0.663792,1.794754 -1.46123,1.794754 -0.329548,0 -0.543367,-0.09185 -0.859034,-0.369007 -0.671563,-0.589641 -0.71356,-1.602389 -0.08241,-1.987225 0.244794,-0.14926 0.69028,-0.183761 0.902972,-0.06993 0.218409,0.116889 0.394157,0.854595 0.228053,0.957254 -0.03301,0.0204 -0.167667,-0.07398 -0.299243,-0.209732 -0.268942,-0.277478 -0.419826,-0.307126 -0.592423,-0.116409 -0.228665,0.252673 -0.07166,0.785606 0.331357,1.124719 0.535785,0.450833 1.213108,-0.167161 1.219309,-1.112505 0.0034,-0.519048 -0.102222,-0.775907 -0.470523,-1.144208 -0.49841,-0.49841 -1.304126,-0.64978 -1.775956,-0.333649 -0.300447,0.201303 -0.647,0.708449 -0.852104,1.24697 -0.227678,0.597793 -0.230399,1.637265 -0.0055,2.10184 0.190778,0.394096 0.555758,0.733558 0.999963,0.930051 0.622754,0.275474 2.278161,0.430027 2.696281,0.251731 0.348452,-0.148587 1.069039,-0.686851 1.334172,-0.9966 0.591699,-0.691267 0.729643,-1.284966 0.503253,-2.165951 -0.295989,-1.151826 -0.929183,-2.052136 -2.783103,-3.957174 -0.916076,-0.941335 -1.424983,-1.529387 -1.763148,-2.037349 -1.589675,-2.387879 -2.028138,-4.95535 -1.16735,-6.835558 0.276732,-0.604465 0.891683,-1.505027 1.457914,-2.135039 L 35.256444,7.840881 34.962272,7.49201 C 34.800477,7.300131 34.565897,7.079975 34.440984,7.002774 33.857638,6.642247 32.867626,7.080314 33.12641,7.584458 c 0.227527,0.443251 0.703524,0.550688 1.023254,0.230958 0.172273,-0.172273 0.188008,-0.176129 0.188008,-0.04607 0,0.2354 -0.299094,0.491913 -0.636476,0.545863 -0.450644,0.07206 -0.875422,-0.14901 -1.073828,-0.558862 -0.17392,-0.359272 -0.1444,-0.593977 0.119246,-0.948082 0.56994,-0.765492 2.02788,-0.675923 2.567894,0.15776 0.10991,0.169681 0.235872,0.368215 0.279915,0.441186 0.0747,0.123771 0.08906,0.124779 0.213941,0.01501 0.207786,-0.182637 0.806559,-0.515501 1.239221,-0.688895 0.554745,-0.22232 1.406072,-0.370117 2.131922,-0.370117 1.656614,0 4.101777,0.760977 5.398374,1.680067 1.016303,0.720404 2.015812,2.129563 2.447409,3.450484 0.20427,0.625174 0.266814,1.059054 0.370486,2.570133 0.06284,0.915887 0.108839,1.25575 0.157597,1.164327 0.03787,-0.07101 0.26892,-0.401883 0.513441,-0.735274 0.516793,-0.704616 0.676183,-0.995757 0.676183,-1.235115 0,-0.09487 -0.160456,-0.485757 -0.356568,-0.868632 -0.43793,-0.854984 -0.446978,-1.026771 -0.08108,-1.53946 0.376164,-0.527078 0.580279,-0.946567 0.580279,-1.192569 0,-0.241652 -0.319604,-0.711177 -0.63882,-0.938478 -0.122991,-0.08758 -0.344189,-0.175404 -0.49155,-0.195169 -0.237954,-0.03192 -0.291436,-0.0084 -0.478027,0.210168 -0.115553,0.135358 -0.248324,0.307217 -0.295045,0.38191 -0.07647,0.122255 -0.08537,0.112929 -0.08914,-0.09348 -0.0087,-0.473109 0.645382,-0.947298 1.154897,-0.837324 0.792001,0.170945 1.336881,0.83099 1.336881,1.619442 0,0.325819 -0.05102,0.469218 -0.356567,1.002088 -0.196112,0.342023 -0.356568,0.681806 -0.356568,0.755075 0,0.07327 0.131411,0.392204 0.292023,0.708747 0.328809,0.648031 0.38909,0.992328 0.237333,1.355535 -0.05722,0.136954 -0.380809,0.663294 -0.719081,1.169646 l -0.615038,0.920638 0.04435,0.547335 c 0.02439,0.301034 0.0796,0.671253 0.122674,0.822709 0.0725,0.254907 0.08534,0.265359 0.172702,0.140633 0.153623,-0.219327 0.646539,-1.234862 0.848898,-1.748947 0.103306,-0.262447 0.33381,-1.048679 0.51223,-1.74718 0.447103,-1.750377 0.630953,-2.292423 1.072833,-3.163038 0.917193,-1.807101 1.804833,-2.814378 2.986813,-3.389377 0.802321,-0.390307 1.416851,-0.526785 2.37926,-0.528398 1.262814,-0.0021 2.037058,0.288198 2.75959,1.034756 0.842138,0.87014 1.113339,1.737789 0.96167,3.076657 -0.234087,2.066419 -1.081372,3.022512 -2.933152,3.309825 -1.002156,0.15549 -2.030377,-0.200989 -2.581825,-0.895107 -0.47982,-0.603959 -0.619159,-0.981148 -0.619895,-1.678053 -5.49e-4,-0.519141 0.02848,-0.667593 0.202227,-1.034046 0.259559,-0.547451 0.513337,-0.845327 0.927724,-1.088929 0.294486,-0.173117 0.402408,-0.194713 0.973044,-0.194713 0.552379,0 0.686078,0.02484 0.959402,0.178283 0.620634,0.348412 0.974959,1.030678 0.914416,1.760741 -0.07235,0.872432 -0.812849,1.337064 -1.858294,1.166 -0.701747,-0.114826 -1.119863,-0.591367 -1.120518,-1.277092 -3.34e-4,-0.349781 0.02351,-0.406657 0.276499,-0.65965 0.246198,-0.246198 0.31553,-0.276864 0.625954,-0.276864 0.434185,0 0.804564,0.223132 0.807613,0.486542 7.46e-4,0.0644 -0.05851,0.04743 -0.186808,-0.05348 -0.202378,-0.15919 -0.589419,-0.194802 -0.813542,-0.07485 -0.205657,0.110064 -0.293526,0.329011 -0.242086,0.603211 0.09728,0.518548 0.650572,0.819755 1.256519,0.684036 0.435711,-0.09759 0.628831,-0.344221 0.628831,-0.803074 0,-0.438357 -0.182991,-0.767401 -0.591238,-1.063134 -0.236508,-0.171325 -0.356631,-0.207121 -0.695045,-0.207121 -0.869763,0 -1.504031,0.75014 -1.516497,1.793541 -0.0074,0.621451 0.112436,0.918544 0.546464,1.354495 0.353673,0.355241 0.8689,0.608587 1.360875,0.669166 0.719621,0.08861 1.83187,-0.271853 2.30801,-0.747994 0.741212,-0.741211 1.04172,-2.717036 0.567731,-3.732802 C 58.65377,8.400195 57.977647,7.715642 57.421984,7.458952 57.004315,7.26601 56.926134,7.254641 56.016973,7.254641 c -1.110141,0 -1.437304,0.08356 -2.246375,0.573726 -1.037031,0.628276 -1.719956,1.363671 -2.248672,2.42144 -0.53528,1.070899 -1.097322,2.585824 -1.387795,3.740655 -0.569218,2.263031 -1.191062,3.459596 -3.059246,5.886664 -1.061962,1.379657 -2.239975,2.433864 -4.750102,4.250878 -1.558845,1.128406 -1.704315,1.22485 -2.576498,1.708167 -0.796714,0.441496 -0.953545,0.563614 -2.558776,1.992408 -2.391307,2.12847 -3.01808,2.809588 -3.533526,3.839904 -0.353787,0.707177 -0.480892,1.279823 -0.44601,2.009406 0.02502,0.523216 0.0676,0.693775 0.290265,1.162651 0.33703,0.70969 0.855059,1.26124 1.467992,1.562986 0.438565,0.215905 0.518521,0.230498 1.404819,0.256397 0.709835,0.02074 1.034185,2e-5 1.325583,-0.08469 1.088866,-0.316542 1.741041,-1.221967 1.731912,-2.404439 -0.0051,-0.657531 -0.178309,-1.063603 -0.632237,-1.48202 -0.567398,-0.523009 -1.260001,-0.747254 -1.923514,-0.622778 -0.312564,0.05864 -0.740299,0.418385 -0.871876,0.733294 -0.153508,0.367396 -0.120538,0.872743 0.08306,1.273045 0.474625,0.933199 1.139922,1.222738 1.64622,0.71644 0.225212,-0.225211 0.242383,-0.274691 0.241293,-0.695306 -0.0015,-0.592506 -0.204315,-0.97349 -0.597868,-1.123278 -0.272145,-0.103579 -0.279413,-0.101986 -0.452438,0.09917 -0.155994,0.181354 -0.17258,0.255771 -0.146898,0.659102 0.02553,0.400917 0.05381,0.474533 0.239268,0.622733 0.238421,0.190527 0.209781,0.281598 -0.06673,0.212197 -0.299262,-0.07511 -0.526219,-0.406608 -0.581544,-0.849419 -0.05762,-0.461174 -0.0178,-0.660028 0.18339,-0.915798 0.332063,-0.422151 1.205507,-0.38861 1.708261,0.0656 0.925353,0.836 0.225483,2.737978 -1.007492,2.737978 -0.404928,0 -0.977073,-0.27939 -1.280992,-0.625535 -0.724993,-0.82572 -0.829912,-2.162837 -0.225151,-2.869364 0.359759,-0.420298 0.714328,-0.566732 1.373607,-0.567289 1.091608,-9.23e-4 1.846861,0.33822 2.386918,1.071835 0.430439,0.584711 0.578549,1.105491 0.483971,1.701727 -0.213478,1.345811 -1.067151,2.522848 -2.050783,2.827606 -0.418001,0.129509 -1.845898,0.193112 -2.333344,0.103935 z m 4.804705,-12.712739 c 0.327315,-0.210366 0.819211,-0.525432 1.093103,-0.700147 1.185592,-0.756288 3.314287,-2.611125 3.638268,-3.170203 0.698615,-1.205564 0.801929,-3.390994 0.219603,-4.645329 -0.336128,-0.724022 -1.088336,-1.309346 -1.682658,-1.309346 -0.665087,0 -1.406626,0.426956 -1.548219,0.891418 -0.116313,0.381541 0.02054,0.769092 0.412009,1.166788 0.526088,0.534452 0.966538,0.608496 1.348361,0.226673 0.320734,-0.320734 0.07065,-1.103604 -0.395214,-1.237214 -0.199187,-0.05713 -0.392556,-0.0059 -0.832096,0.220331 -0.113824,0.05859 -0.04627,-0.250458 0.08571,-0.392125 0.352446,-0.378306 1.112982,-0.382545 1.538909,-0.0086 0.634457,0.557061 0.523499,1.768706 -0.195565,2.135545 -0.240123,0.122502 -0.383053,0.145423 -0.732101,0.117405 -0.683037,-0.05483 -1.079747,-0.314847 -1.631253,-1.069187 l -0.194937,-0.266631 -0.656626,0.535618 c -0.361145,0.29459 -0.881264,0.64765 -1.155821,0.784578 -0.485979,0.24237 -1.283944,0.457312 -1.707038,0.459813 l -0.209454,0.0012 0.182109,0.196112 c 0.100159,0.107861 0.318158,0.432175 0.484442,0.720697 0.386451,0.67054 0.482687,0.762149 0.864696,0.823126 0.466945,0.07454 0.623799,0.214804 0.887657,0.793801 0.137994,0.302808 0.31604,0.575098 0.421028,0.643889 0.168775,0.110586 0.1948,0.110758 0.360202,0.0024 0.14297,-0.09368 0.178284,-0.175693 0.178284,-0.414056 0,-0.276666 0.0072,-0.287658 0.104702,-0.158811 0.145567,0.192455 0.133842,0.453768 -0.03261,0.726765 -0.119935,0.196708 -0.181925,0.231316 -0.409786,0.228779 -0.399873,-0.0045 -0.69067,-0.196912 -1.055885,-0.698825 -0.342874,-0.471209 -0.544165,-0.598084 -1.09211,-0.688362 -0.409004,-0.06739 -0.548974,-0.221701 -0.65744,-0.724811 -0.102822,-0.476932 -0.345884,-1.005393 -0.539639,-1.173274 -0.148192,-0.128404 -1.876359,-0.875019 -1.921316,-0.830062 -0.03061,0.03061 0.551605,0.68609 1.731416,1.949276 1.385433,1.483339 1.899908,2.264745 2.237551,3.398487 0.161564,0.542502 0.211335,1.294421 0.111685,1.687291 -0.07627,0.300683 -0.05506,0.294375 0.750027,-0.223053 z m 6.215881,-5.15529 c 0.838229,-0.945504 1.011853,-1.221555 1.008373,-1.603256 -0.004,-0.441819 -0.103805,-1.141303 -0.162568,-1.13968 -0.04714,0.0013 -1.077879,2.111794 -1.510356,3.092541 -0.208534,0.472902 -0.210544,0.487047 -0.05472,0.385091 0.08897,-0.05821 0.412644,-0.388827 0.719271,-0.734696 z M 39.019511,17.4511 c 1.737557,-0.583278 2.684775,-1.873893 2.695182,-3.672269 0.0036,-0.625801 -0.01413,-0.715176 -0.228665,-1.151437 -0.279691,-0.56875 -0.953598,-1.233045 -1.543852,-1.521829 -0.33802,-0.165377 -0.467019,-0.190548 -0.851177,-0.166087 -0.577631,0.03678 -1.240072,0.353474 -1.738008,0.83089 -0.916739,0.878961 -0.970777,1.931898 -0.145491,2.834892 0.457613,0.500701 0.969794,0.773313 1.355657,0.721558 0.559635,-0.07506 1.105722,-0.66987 1.229815,-1.339535 0.11113,-0.599707 -0.34485,-1.348483 -0.821181,-1.348483 -0.17257,0 -0.300093,0.07063 -0.514334,0.284872 -0.26186,0.261859 -0.280858,0.306507 -0.235174,0.55268 0.02734,0.147294 0.100094,0.323966 0.161688,0.392605 0.144117,0.160602 0.48977,0.160602 0.621607,0 0.05635,-0.06864 0.165587,-0.205026 0.24276,-0.303082 0.07717,-0.09806 0.165455,-0.153232 0.196182,-0.122613 0.120057,0.119637 0.03798,0.559239 -0.150564,0.806435 -0.506223,0.663693 -1.273224,0.40741 -1.457475,-0.486997 -0.132397,-0.642694 0.175615,-1.276464 0.757185,-1.557997 0.62111,-0.300674 1.223409,-0.07074 1.573785,0.600811 0.169121,0.324147 0.192118,0.449091 0.192452,1.045615 4.5e-4,0.800487 -0.06026,0.944812 -0.620142,1.474328 -0.435011,0.411415 -0.725705,0.521807 -1.372877,0.521355 -0.579958,-4.05e-4 -1.036022,-0.22443 -1.538102,-0.755535 -0.741749,-0.78463 -0.970357,-1.534419 -0.719574,-2.360064 0.527752,-1.737511 2.240224,-2.789494 3.795801,-2.331789 1.13178,0.33301 2.015086,1.28031 2.387122,2.560067 0.09356,0.321835 0.111123,0.552512 0.07502,0.985376 -0.0437,0.524053 -0.03788,0.561363 0.08005,0.512834 0.958466,-0.394423 1.9799,-0.273684 2.733405,0.323103 0.648984,0.514005 1.108118,1.565245 1.135712,2.600342 l 0.0076,0.285254 0.09875,-0.227045 c 0.05431,-0.124875 0.168788,-0.573043 0.25439,-0.99593 0.140591,-0.694547 0.150776,-0.89323 0.105338,-2.054986 -0.05279,-1.349817 -0.214883,-2.401112 -0.469995,-3.048337 C 45.879139,10.2409 45.043145,9.261105 43.89368,8.505327 42.539673,7.615062 41.703616,7.279804 40.416863,7.111125 38.297644,6.83332 37.015094,7.100465 35.995853,8.031997 c -0.443999,0.40579 -1.309657,1.68105 -1.81572,2.674861 -0.76998,1.512093 -0.815525,2.263746 -0.239967,3.960296 0.663236,1.954992 0.862661,2.167462 2.503101,2.666842 0.925734,0.28181 0.910057,0.278833 1.51882,0.288475 0.385823,0.0061 0.662093,-0.03866 1.057424,-0.171371 z M 184.52561,37.203547 c -0.86919,-0.243823 -1.38422,-0.728173 -1.90436,-1.790892 -0.33354,-0.681481 -0.34373,-0.72139 -0.34323,-1.344155 4.3e-4,-0.537458 0.0281,-0.694003 0.16994,-0.962732 0.58261,-1.103471 1.54442,-1.630667 2.82921,-1.550782 0.81993,0.05098 1.12377,0.239785 1.45861,0.906384 0.21452,0.427066 0.21959,1.338597 0.0101,1.812251 -0.3223,0.728601 -1.12352,1.328361 -1.77389,1.327852 -0.4175,-3.26e-4 -0.72277,-0.173192 -1.01276,-0.573511 -0.29014,-0.400536 -0.38391,-0.723245 -0.34832,-1.198788 0.0537,-0.71684 0.51401,-1.236036 1.1852,-1.336688 0.8386,-0.125755 1.26078,0.389608 1.08357,1.322706 -0.0908,0.477997 -0.29576,0.716846 -0.6152,0.716846 -0.12813,0 -0.25279,-0.03209 -0.27703,-0.07131 -0.0257,-0.04153 0.0459,-0.07131 0.17133,-0.07131 0.19143,0 0.22406,-0.03217 0.29325,-0.289121 0.082,-0.304506 0.0312,-0.895889 -0.0901,-1.048007 -0.20068,-0.251776 -0.80614,0.01827 -1.02041,0.455118 -0.39208,0.799379 0.13981,1.710305 0.88194,1.510411 0.57238,-0.154175 0.99238,-0.795169 1.06154,-1.6201 0.0388,-0.462239 0.0267,-0.526947 -0.14639,-0.788567 -0.28225,-0.426511 -0.67309,-0.598388 -1.26447,-0.556074 -0.59109,0.04229 -1.02853,0.245412 -1.48405,0.689106 -0.44976,0.438075 -0.60278,0.880937 -0.56467,1.634225 0.0172,0.339762 0.0784,0.651922 0.16119,0.821824 0.21534,0.442024 0.79288,1.019477 1.23847,1.238293 0.39123,0.192123 0.44541,0.199266 1.51114,0.199266 1.09513,0 1.10981,-0.0021 1.58607,-0.227713 0.82161,-0.389205 1.4134,-1.124066 1.65635,-2.056811 0.29204,-1.121238 -0.0571,-2.427311 -0.97224,-3.63651 -0.50184,-0.663139 -1.40812,-1.564141 -2.87174,-2.85503 -1.53513,-1.353958 -1.89182,-1.631467 -2.47519,-1.925733 -0.64262,-0.324158 -1.96684,-1.216998 -3.40028,-2.292602 -2.43604,-1.827923 -3.19045,-2.560158 -4.67483,-4.5374 -1.29414,-1.723825 -1.9619,-3.130013 -2.50052,-5.26564 -0.23441,-0.929433 -0.89523,-2.701417 -1.33386,-3.576718 -0.49331,-0.984407 -1.19322,-1.764719 -2.12158,-2.365267 -0.83941,-0.543015 -1.16511,-0.632297 -2.3251,-0.637366 -0.97213,-0.0042 -1.01059,0.0014 -1.46193,0.21575 -0.97665,0.463764 -1.65032,1.466433 -1.70017,2.53048 -0.048,1.025671 0.27777,2.172923 0.76405,2.690318 0.64258,0.683692 2.25727,0.972555 3.0744,0.550002 0.3675,-0.190042 0.78535,-0.611043 0.97195,-0.979295 0.13708,-0.270506 0.17575,-0.458102 0.17733,-0.860287 0.002,-0.596707 -0.10953,-0.910993 -0.44722,-1.25627 -0.38403,-0.392658 -0.62154,-0.505496 -1.06463,-0.505792 -0.33065,-2.21e-4 -0.45008,0.03648 -0.69418,0.213304 -0.32995,0.239012 -0.61039,0.639449 -0.68466,0.977615 -0.15524,0.706782 0.82354,1.171407 1.61046,0.764479 0.49087,-0.253842 0.45923,-1.144958 -0.0452,-1.271551 -0.18393,-0.04616 -0.52699,0.08723 -0.76811,0.298666 -0.19041,0.166976 -0.21772,0.06287 -0.0421,-0.16043 0.26765,-0.34026 0.92672,-0.508301 1.27098,-0.324057 0.24873,0.133115 0.44343,0.549449 0.44039,0.941706 -0.003,0.42265 -0.26133,0.853841 -0.6477,1.082275 -0.28666,0.169479 -1.01495,0.22934 -1.42863,0.117425 -0.68559,-0.185481 -1.12665,-0.981054 -0.93613,-1.688575 0.11211,-0.416348 0.48657,-0.943987 0.85055,-1.198463 0.29253,-0.204523 0.34644,-0.216188 0.99839,-0.216001 0.80253,2.29e-4 1.09319,0.115341 1.53999,0.609902 0.45621,0.50497 0.57544,0.851384 0.57544,1.671931 0,0.839199 -0.10855,1.123877 -0.66778,1.751319 -0.68201,0.765205 -1.64248,1.056577 -2.73992,0.831194 -1.08145,-0.2221 -1.75982,-0.68009 -2.1828,-1.473682 -0.37251,-0.698891 -0.44618,-1.023963 -0.48563,-2.142875 -0.0422,-1.195661 0.0358,-1.525812 0.53329,-2.258408 0.77649,-1.143434 1.73868,-1.563891 3.43909,-1.502812 0.76124,0.02734 0.97646,0.06299 1.47373,0.244052 0.80884,0.294517 1.32325,0.617183 1.91227,1.199479 0.62073,0.613642 1.12773,1.348156 1.63142,2.363513 0.4837,0.975059 0.68445,1.534404 0.96894,2.699744 0.12448,0.509891 0.33877,1.280077 0.4762,1.711523 0.26859,0.843198 0.94404,2.289022 1.06102,2.271114 0.12493,-0.01913 0.26656,-0.544022 0.27606,-1.023128 0.009,-0.459218 0.005,-0.470418 -0.47945,-1.201936 -1.00155,-1.513481 -1.05144,-1.757209 -0.55601,-2.716533 0.33998,-0.658312 0.34061,-0.645695 -0.0672,-1.353043 -0.49797,-0.863721 -0.48542,-1.509407 0.0413,-2.124766 0.32285,-0.377186 0.75812,-0.550553 1.26095,-0.502238 0.31279,0.03006 0.40846,0.07626 0.60745,0.293404 0.24059,0.262526 0.2904,0.502585 0.16488,0.794676 -0.0509,0.118384 -0.0621,0.10202 -0.0663,-0.09627 -0.006,-0.282176 -0.3984,-0.723832 -0.64324,-0.723832 -0.33289,0 -0.91632,0.417827 -1.11532,0.798735 -0.19796,0.378925 -0.0759,0.845443 0.36056,1.378086 0.13431,0.163907 0.30032,0.4157 0.36891,0.559542 l 0.12472,0.261529 -0.40608,0.779614 c -0.22335,0.428788 -0.40464,0.853381 -0.40286,0.943541 0.002,0.09016 0.074,0.293935 0.16045,0.452835 0.2006,0.368581 0.99917,1.522958 1.05616,1.526729 0.0237,0.0016 0.0652,-0.470487 0.0922,-1.049018 0.10239,-2.195602 0.3499,-3.050012 1.30001,-4.487742 0.76509,-1.157734 1.71094,-1.891394 3.1633,-2.453634 2.08453,-0.806965 3.98778,-1.043026 5.38024,-0.667312 0.4709,0.127058 1.23028,0.493448 1.60553,0.774648 0.28303,0.212085 0.36055,0.228002 0.36055,0.07403 0,-0.160536 0.63016,-0.808203 0.9403,-0.966427 0.3649,-0.186158 1.20976,-0.188238 1.55678,-0.0038 0.35557,0.18895 0.5694,0.5342 0.5694,0.919366 0,0.399704 -0.18494,0.670138 -0.59353,0.867932 -0.66615,0.322482 -1.19218,0.09739 -1.18637,-0.50766 l 0.003,-0.306324 0.15751,0.320911 c 0.14124,0.287748 0.17963,0.318302 0.37146,0.295665 0.34979,-0.04128 0.59017,-0.203118 0.64023,-0.431056 0.12129,-0.552223 -0.69518,-0.927236 -1.29666,-0.595572 -0.12448,0.06864 -0.35907,0.27689 -0.52131,0.462781 l -0.29498,0.337982 0.14105,0.196869 c 0.0776,0.108277 0.22759,0.277096 0.33336,0.375152 0.31847,0.295254 0.85064,1.002018 1.17131,1.555589 0.73866,1.275174 0.90348,2.488684 0.57994,4.269968 -0.10787,0.593895 -0.29208,1.111219 -0.64799,1.819772 -0.72357,1.440486 -1.0729,1.90283 -2.73036,3.613648 -1.71872,1.77406 -2.28393,2.6004 -2.62565,3.838694 -0.13269,0.480819 -0.14264,0.607195 -0.0739,0.938527 0.14521,0.699853 0.82876,1.514526 1.67887,2.00091 0.32604,0.186539 0.456,0.219062 0.87353,0.218604 0.52213,-5.74e-4 1.21255,-0.08985 1.7385,-0.224796 1.05563,-0.270851 1.49759,-0.865513 1.49759,-2.015023 0,-0.750095 -0.15149,-1.319272 -0.48333,-1.815984 -0.36035,-0.539396 -0.64691,-0.721661 -1.13461,-0.721661 -0.45887,0 -0.83146,0.171125 -1.20204,0.552081 -0.40319,0.414472 -0.47924,0.612474 -0.44795,1.166259 0.0233,0.411707 0.0602,0.525044 0.24622,0.755783 0.12037,0.149295 0.30178,0.318534 0.40314,0.376088 0.54139,0.307401 1.31201,-0.814632 0.84794,-1.234605 -0.18667,-0.168937 -0.39015,-0.145878 -0.5735,0.06499 -0.18657,0.214571 -0.32233,0.196744 -0.34943,-0.04589 -0.0322,-0.287937 0.22499,-0.621622 0.52197,-0.677336 0.31229,-0.05859 0.74648,0.05924 0.91843,0.249235 0.18085,0.199847 0.26322,0.65055 0.19026,1.041101 -0.0823,0.440628 -0.59241,0.978466 -1.0493,1.10639 -0.66338,0.185734 -1.16533,-0.08004 -1.52036,-0.804997 -0.41339,-0.84414 -0.36389,-1.454413 0.17762,-2.190002 0.44912,-0.610096 0.84571,-0.786982 1.76447,-0.786982 0.82714,0 1.07017,0.08808 1.45209,0.526265 0.47337,0.543122 0.8802,1.623628 0.8802,2.337747 0,0.829746 -0.25537,1.471374 -0.78939,1.983386 -0.6117,0.586498 -1.55105,0.923854 -2.65145,0.952235 -0.26473,0.0068 -0.48119,0.01242 -0.48103,0.01242 1.7e-4,0 0.52349,0.529503 1.16293,1.176673 2.05091,2.075678 2.61586,3.040923 2.7339,4.671032 0.0548,0.756487 -0.055,1.302436 -0.40514,2.013888 -0.47349,0.962224 -1.27066,1.724178 -2.12048,2.0268 -0.55606,0.198013 -1.95182,0.24957 -2.51087,0.09275 z m -1.93217,-12.3875 c -0.17835,-0.621862 0.0268,-1.753918 0.48402,-2.671344 0.33608,-0.674299 0.97706,-1.481203 2.35271,-2.961731 1.09151,-1.174724 1.2747,-1.391786 1.22043,-1.446064 -0.0276,-0.02763 -1.48685,0.58407 -1.75009,0.733637 -0.21636,0.122935 -0.50494,0.635643 -0.69477,1.234362 -0.087,0.27429 -0.18734,0.527464 -0.22307,0.562607 -0.0357,0.03514 -0.30564,0.129347 -0.5998,0.209341 -0.39641,0.107796 -0.57177,0.194877 -0.67748,0.336419 -0.69369,0.928833 -0.81593,1.027235 -1.27046,1.022697 -0.4532,-0.0045 -0.70366,-0.442355 -0.51346,-0.897574 0.0961,-0.229916 0.29075,-0.357273 0.20515,-0.134204 -0.0226,0.05883 -0.0697,0.10697 -0.10473,0.10697 -0.10228,0 -0.0734,0.239594 0.0501,0.415914 0.0891,0.127255 0.16942,0.157694 0.37104,0.140667 0.24113,-0.02037 0.27539,-0.05575 0.5459,-0.563814 0.36593,-0.687303 0.42697,-0.757929 0.7036,-0.814148 0.72919,-0.148194 0.75222,-0.16232 0.97094,-0.595592 0.11462,-0.227074 0.32606,-0.566996 0.46986,-0.755382 0.27259,-0.357113 0.25634,-0.461031 -0.0729,-0.466373 -0.25907,-0.0042 -1.13546,-0.25995 -1.46192,-0.42662 -0.46741,-0.238623 -1.05058,-0.646398 -1.49083,-1.042451 l -0.38547,-0.346768 -0.14861,0.212678 c -0.0817,0.116973 -0.32579,0.390881 -0.54236,0.608684 -0.45205,0.454622 -0.84663,0.606309 -1.43108,0.55015 -0.64596,-0.06207 -0.99607,-0.484911 -0.99006,-1.195753 0.004,-0.480823 0.1589,-0.808612 0.51851,-1.097698 0.23904,-0.192161 0.32773,-0.219175 0.72328,-0.220309 0.50467,-0.0014 0.70982,0.117517 0.77305,0.448278 0.0557,0.291275 -0.0104,0.321298 -0.25477,0.1157 -0.30172,-0.253885 -0.64063,-0.202998 -0.96133,0.144345 -0.38698,0.419131 -0.295,0.976766 0.19457,1.179554 0.30715,0.127225 0.76079,-0.057 1.13198,-0.459688 0.70133,-0.760844 0.50016,-1.587456 -0.47064,-1.9339 -1.07797,-0.384687 -2.24911,0.443418 -2.61528,1.849236 -0.26253,1.007905 -0.21275,2.128609 0.14773,3.326215 l 0.18245,0.606165 0.80336,0.794998 c 0.96201,0.952 2.0841,1.857765 3.10397,2.505578 0.41184,0.261592 0.95739,0.626504 1.21233,0.810913 0.25495,0.18441 0.48537,0.337611 0.51205,0.340447 0.0267,0.0028 0.0187,-0.09893 -0.0178,-0.226142 z m -6.22968,-4.885444 c -0.0893,-0.225529 -0.38817,-0.875373 -0.66409,-1.444098 -0.27593,-0.568725 -0.56148,-1.218337 -0.63457,-1.443582 -0.0731,-0.225245 -0.15544,-0.409768 -0.18302,-0.410052 -0.0736,-7.58e-4 -0.1923,0.472418 -0.2413,0.962216 -0.0425,0.424684 -0.0402,0.43161 0.31085,0.927075 0.31932,0.450729 1.48381,1.818494 1.54823,1.818494 0.0145,0 -0.0468,-0.184524 -0.1361,-0.410053 z m 9.34779,-2.542145 c 0.31983,-0.103118 0.82554,-0.298693 1.12379,-0.434613 0.66303,-0.302152 0.80388,-0.498062 1.32911,-1.848747 0.81415,-2.093684 0.78695,-2.754302 -0.1894,-4.599639 -1.16839,-2.208309 -2.24985,-3.222441 -3.66511,-3.436958 -0.7169,-0.108663 -2.28634,-0.03757 -3.13779,0.142138 -0.9072,0.191474 -2.25524,0.866308 -3.30001,1.652 -0.98217,0.738611 -1.48549,1.39482 -1.93863,2.527474 -0.46121,1.152852 -0.60934,3.518222 -0.32381,5.170928 0.0779,0.451058 0.14189,0.844173 0.14215,0.87359 2.6e-4,0.02942 0.0326,0.05348 0.0718,0.05348 0.0392,0 0.0713,-0.108938 0.0713,-0.242085 0,-0.353023 0.26131,-1.153809 0.54189,-1.660621 0.60541,-1.093553 1.88436,-1.622788 3.00371,-1.242945 0.2439,0.08277 0.45354,0.150485 0.46586,0.150485 0.0123,0 0.009,-0.229936 -0.006,-0.51097 -0.0593,-1.050107 0.33772,-2.051454 1.09397,-2.758882 0.5266,-0.49261 0.84439,-0.676131 1.43902,-0.831012 1.40902,-0.367003 2.82768,0.373113 3.56159,1.858081 0.25008,0.505997 0.25769,0.544509 0.22844,1.156314 -0.036,0.752547 -0.20282,1.097127 -0.84064,1.736217 -0.56394,0.565068 -0.77676,0.661851 -1.46461,0.666061 -0.72814,0.0045 -1.13968,-0.148307 -1.52465,-0.565953 -0.40421,-0.438523 -0.52727,-0.757992 -0.53604,-1.391677 -0.006,-0.450645 0.024,-0.598894 0.19235,-0.94163 0.30293,-0.616876 0.52443,-0.769893 1.11447,-0.769893 0.58993,0 0.87767,0.16474 1.12101,0.641821 0.21786,0.427119 0.22799,1.062303 0.0222,1.395211 -0.19863,0.321386 -0.68985,0.514249 -0.99153,0.389291 -0.24702,-0.102318 -0.50321,-0.568467 -0.50321,-0.915599 0,-0.269456 0.0847,-0.290509 0.23648,-0.0588 0.19295,0.294478 0.33877,0.40223 0.54433,0.40223 0.26916,0 0.39586,-0.173431 0.39586,-0.541851 0,-0.555046 -0.58917,-0.979879 -1.031,-0.74342 -0.23462,0.125563 -0.50224,0.675916 -0.50224,1.032835 0,0.589548 0.36563,1.214719 0.85705,1.465423 0.52278,0.2667 0.97892,0.150871 1.56509,-0.397428 0.48969,-0.458044 0.71565,-0.954741 0.71565,-1.573076 0,-0.627408 -0.17295,-0.983041 -0.71792,-1.476206 -0.57844,-0.523459 -1.12071,-0.781899 -1.71801,-0.818787 -0.43126,-0.02663 -0.516,-0.0074 -0.92401,0.210099 -0.55318,0.294843 -1.19012,0.937259 -1.46278,1.475346 -0.18695,0.368949 -0.20488,0.469861 -0.20488,1.153125 0,0.903063 0.17167,1.529812 0.60092,2.193948 0.4304,0.665913 1.33647,1.285108 2.28011,1.558203 0.51371,0.14867 1.56495,0.08205 2.26454,-0.143509 z M 61.732518,11.493113 C 61.117636,11.37087 60.498554,10.863129 60.129612,10.178485 59.900166,9.752704 59.908121,8.73863 60.144442,8.288678 c 0.401239,-0.76397 0.907183,-1.163769 1.761237,-1.391734 0.968065,-0.258397 3.376423,-0.271295 51.269061,-0.274565 38.60983,-0.0026 46.70654,0.01317 47.03124,0.09182 0.93625,0.22677 1.37318,0.561906 1.80105,1.381457 0.2156,0.412979 0.23109,0.490383 0.23123,1.155757 1.8e-4,0.810624 -0.0466,0.935634 -0.56636,1.513743 -1.04105,1.157894 -2.24447,1.031372 -2.8669,-0.301414 -0.21621,-0.462972 -0.21116,-0.77664 0.02,-1.240515 0.27302,-0.547875 0.63855,-0.791919 1.18613,-0.791919 0.39927,0 0.44269,0.01711 0.70244,0.276864 0.25328,0.253285 0.27677,0.309464 0.27581,0.65965 -0.001,0.386864 -0.11005,0.705955 -0.25774,0.754614 -0.058,0.01911 -0.063,-0.06739 -0.0177,-0.309529 0.0771,-0.412655 -0.0811,-0.796494 -0.38839,-0.942301 -0.25082,-0.119017 -0.47042,-0.067 -0.76556,0.181344 -0.50027,0.42095 -0.50807,0.98182 -0.0211,1.520788 0.43725,0.483984 1.04203,0.438563 1.61872,-0.121571 0.41628,-0.404337 0.50427,-0.623398 0.49816,-1.240317 -0.007,-0.656766 -0.17175,-1.07467 -0.5826,-1.473395 -0.32981,-0.319993 -0.64579,-0.432118 -1.50665,-0.534595 -0.40273,-0.04794 -14.66884,-0.0824 -42.18429,-0.101888 -41.293177,-0.02925 -54.474551,0.01618 -55.184425,0.190175 -0.556968,0.13652 -1.189209,0.610742 -1.420652,1.065583 -0.248921,0.489188 -0.268435,1.092478 -0.04994,1.543834 0.30055,0.620853 1.054206,1.104026 1.534168,0.983563 0.458679,-0.115121 0.884316,-0.83673 0.778286,-1.319479 C 62.939303,9.107692 62.250547,8.619532 61.940386,8.785525 61.6585,8.936386 61.4368,9.289021 61.4368,9.586527 c 0,0.248372 -0.01488,0.276162 -0.106971,0.199737 -0.135739,-0.112653 -0.139553,-0.586281 -0.0068,-0.841475 0.204058,-0.392193 0.450254,-0.549437 0.854297,-0.545634 1.314598,0.01238 1.884702,1.633531 0.922741,2.623919 -0.436109,0.448995 -0.816244,0.57965 -1.367572,0.470042 z M 47.001768,9.455144 c -0.02473,-0.06445 -0.0303,-0.131843 -0.01237,-0.149768 0.05668,-0.05667 0.184707,0.05713 0.184707,0.164183 0,0.139883 -0.116874,0.130107 -0.172332,-0.01442 z"
       id="path1" /></g></svg>
