<?xml version="1.0" encoding="UTF-8" standalone="no"?>
<!-- Created with Inkscape (http://www.inkscape.org/) -->

<svg
   width="2404.0505"
   height="4930.9395"
   viewBox="0 0 636.0717 1304.6444"
   version="1.1"
   id="svg1"
   xml:space="preserve"
   xmlns="http://www.w3.org/2000/svg"
   xmlns:svg="http://www.w3.org/2000/svg"><defs
     id="defs1" /><g
     id="layer1"
     transform="translate(-16.952724,-18.292738)"><path
       style="fill:#000000;stroke-width:0.974846"
       d="m 53.196272,1305.5306 c -1.160738,-0.4392 -4.013278,-4.9578 -4.674528,-7.4048 -0.927193,-3.4312 2.702366,-9.9405 10.787191,-19.3461 4.45419,-5.1817 10.168996,-10.3612 13.0433,-11.8214 1.026271,-0.5214 1.416605,-0.5428 2.995992,-0.1646 0.99879,0.2392 2.365978,0.6645 3.038195,0.9449 1.116506,0.4658 1.168258,0.5494 0.598366,0.966 -0.343117,0.2509 -1.210335,0.5645 -1.927153,0.6969 -2.593541,0.4792 -7.033845,2.8719 -9.025623,4.8636 -4.630601,4.6307 -7.489267,14.7226 -6.21837,21.9526 l 0.429941,2.4459 -2.761307,2.5754 c -3.763431,3.5103 -5.399231,4.627 -6.286004,4.2916 z m 563.894368,-0.2164 c -0.61299,-0.2973 -2.56544,-1.9152 -4.33877,-3.5955 l -3.22424,-3.0551 0.41117,-2.8198 c 0.80708,-5.5348 -0.42266,-11.993 -3.40399,-17.8764 -2.01958,-3.9855 -6.66197,-7.3403 -11.82369,-8.5444 -1.17243,-0.2736 -2.22994,-0.5956 -2.35,-0.7157 -0.33267,-0.3326 0.57979,-0.8045 3.21914,-1.6648 l 2.40044,-0.7824 1.4787,0.7844 c 0.81328,0.4315 3.22253,2.2709 5.35389,4.0874 9.87515,8.4168 19.68212,22.538 18.50433,26.6448 -0.52406,1.8273 -2.82547,5.8634 -3.98185,6.9831 -1.10133,1.0665 -1.15947,1.0808 -2.24513,0.5544 z m -590.043532,-0.7046 c -0.502932,-1.3106 1.352028,-8.2332 2.962792,-11.0568 1.882705,-3.3005 3.097795,-4.4443 5.998384,-5.6464 6.707616,-2.7797 10.20174,-5.4856 21.325716,-16.5143 4.602049,-4.5626 8.598134,-8.4248 8.880186,-8.5827 0.628701,-0.3518 3.019456,1.6255 3.019456,2.4973 0,0.3208 -3.425718,3.9921 -7.612705,8.1584 -4.186988,4.1662 -8.910431,9.1097 -10.496539,10.9856 -3.225905,3.8151 -6.234426,8.6094 -7.118208,11.3431 -0.799363,2.4727 -2.872496,4.5332 -6.280903,6.2426 -4.295881,2.1543 -10.285072,3.5976 -10.678179,2.5732 z m 612.658712,-0.3459 c -2.5702,-0.619 -7.99325,-3.2256 -9.72094,-4.6722 -0.91266,-0.7642 -1.62884,-1.9422 -2.58905,-4.2589 -2.65549,-6.4066 -5.18019,-9.5928 -17.27107,-21.7969 l -8.1332,-8.2094 1.48435,-1.3954 c 0.81639,-0.7675 1.61391,-1.3955 1.77228,-1.3955 0.15836,0 3.29708,3.033 6.97492,6.7401 7.91369,7.9765 12.53916,12.2451 15.67497,14.4657 2.3712,1.6792 6.30941,3.7682 8.45928,4.4872 1.47314,0.4927 2.26059,1.1343 3.79584,3.0922 1.90854,2.434 3.90903,7.7245 4.47586,11.8369 l 0.23076,1.6743 -1.51959,-0.029 c -0.83577,-0.016 -2.47126,-0.2586 -3.63441,-0.5387 z m -565.008898,-1.3195 c -2.497381,-0.8212 -4.32687,-1.9432 -6.284437,-3.8544 -4.04733,-3.9515 -5.36056,-9.328 -3.784012,-15.4923 0.900642,-3.5214 2.183732,-5.9764 4.284709,-8.1978 6.297853,-6.6591 17.09344,-6.2628 24.773213,0.9092 2.434213,2.2733 3.389143,3.4395 8.977665,10.9633 4.21531,5.6752 6.87876,7.4972 13.72269,9.3876 l 3.4263,0.9464 h 215.71144 215.71144 l 3.77614,-0.9594 c 7.53218,-1.9137 11.01773,-4.5239 16.13339,-12.082 3.49101,-5.1577 8.53601,-10.2509 11.6365,-11.7475 3.50527,-1.6919 6.37356,-2.3016 9.49677,-2.0186 7.84183,0.7106 12.32917,4.5012 14.69729,12.4154 0.91614,3.0617 0.82449,8.162 -0.19373,10.78 -1.06914,2.7489 -3.18727,5.327 -5.72334,6.9661 -3.08516,1.9941 -5.07709,2.5567 -8.51697,2.4054 -4.95731,-0.2179 -9.20056,-2.8448 -11.41892,-7.0691 -0.85765,-1.6332 -0.97852,-2.2533 -0.98137,-5.0348 -0.003,-2.6834 0.13743,-3.471 0.90971,-5.1109 1.25473,-2.6642 2.48482,-4.0154 4.62779,-5.0833 2.41869,-1.2053 6.04165,-1.2784 8.02791,-0.1621 3.82354,2.1489 3.89813,8.2147 0.12303,10.0061 -2.80587,1.3315 -5.76226,-0.2281 -6.28376,-3.3149 -0.30225,-1.789 -0.90056,-1.8554 -2.4808,-0.2752 -2.89668,2.8968 -1.50503,7.8663 2.82538,10.0893 1.47272,0.756 2.207,0.8958 4.57885,0.8715 2.34138,-0.023 3.17607,-0.1989 4.87705,-1.0226 4.12716,-1.9985 6.09164,-5.0041 6.47953,-9.9134 0.36155,-4.5757 -1.10956,-8.4378 -4.33808,-11.3884 -2.4255,-2.2168 -4.87459,-3.0187 -9.12975,-2.989 -2.84318,0.019 -3.43055,0.1443 -5.63951,1.196 -3.43108,1.6336 -5.69133,4.0873 -9.75059,10.5849 -7.81717,12.5129 -10.96222,15.3078 -19.87567,17.6631 l -3.15191,0.8329 H 335.87696 119.81305 l -3.17223,-0.8283 c -8.05091,-2.1021 -12.51117,-5.7511 -18.15966,-14.8566 -6.142418,-9.9017 -7.794679,-11.8136 -11.70376,-13.5424 -3.465298,-1.5325 -8.503195,-1.5219 -11.806402,0.024 -2.228882,1.0435 -5.160951,4.2495 -6.079338,6.6471 -1.682735,4.3929 -1.279319,9.4161 1.037062,12.9133 2.914508,4.4 10.150955,6.2079 14.380945,3.5928 2.041864,-1.2625 3.59441,-3.4181 3.853596,-5.3504 0.350675,-2.6144 -1.329926,-5.6951 -3.106892,-5.6951 -0.421889,0 -0.651022,0.4304 -0.816419,1.5333 -0.631836,4.2134 -6.293906,5.0631 -8.39148,1.2592 -0.504911,-0.9156 -0.634982,-1.7359 -0.539623,-3.4032 0.106079,-1.8547 0.287753,-2.3692 1.166737,-3.3037 1.430086,-1.5206 2.916106,-2.0776 5.542673,-2.0776 3.979546,0 6.783247,1.9363 8.676053,5.992 0.757879,1.6239 0.905984,2.4535 0.912339,5.1108 0.0066,2.7754 -0.11167,3.3985 -0.94557,4.9804 -1.29309,2.4529 -3.478634,4.5081 -6.241653,5.8691 -1.974967,0.9729 -2.730715,1.1461 -5.307745,1.2156 -1.759254,0.048 -3.589326,-0.1112 -4.414761,-0.3826 z m 49.874468,-6.8 c -5.55306,-0.8341 -8.63414,-2.1902 -11.94951,-5.2596 -3.02313,-2.7989 -4.67409,-6.1809 -4.897,-10.0315 -0.19369,-3.3459 0.20872,-3.6143 1.43721,-0.9585 2.41381,5.218 8.82949,11.3898 15.4093,14.8232 1.45393,0.7587 2.7096,1.4414 2.79038,1.5171 0.16894,0.1583 -1.49172,0.1044 -2.79038,-0.091 z m 423.49231,-1.8798 c 7.33894,-4.5113 11.80382,-8.863 14.38189,-14.0174 0.60601,-1.2116 1.22641,-2.2029 1.37867,-2.2029 0.52418,0 0.2756,3.8182 -0.38724,5.948 -0.94584,3.0389 -2.16274,4.9353 -4.63705,7.2261 -3.35729,3.1082 -6.55889,4.4411 -11.96991,4.9833 l -2.29106,0.2296 z m -420.26791,1.3789 c -0.88208,-0.3534 -5.91593,-3.8824 -8.44261,-5.9188 -2.05053,-1.6526 -3.24107,-3.7571 -3.24107,-5.7291 0,-2.0765 0.79635,-3.2054 2.16081,-3.0632 0.922,0.097 1.16199,0.3991 2.1865,2.7615 1.518,3.5 3.40985,6.3074 6.31491,9.3708 2.85074,3.006 2.99459,3.3691 1.02146,2.5788 z m 415.1571,0.1888 c 0,-0.1033 1.36397,-1.8084 3.03105,-3.789 2.18075,-2.5909 3.52813,-4.6179 4.80301,-7.2255 2.04013,-4.1728 2.61748,-4.681 3.98331,-3.5062 0.74032,0.6368 0.93774,1.1281 0.95667,2.3806 0.0448,2.9628 -1.50193,4.8094 -7.75327,9.2564 -3.92942,2.7952 -5.02077,3.4221 -5.02077,2.8837 z M 31.211768,1282.2539 c -1.571095,-0.7864 -3.427189,-1.968 -4.124653,-2.6257 l -1.268118,-1.1961 0.63275,-1.0711 c 0.348013,-0.5891 1.992072,-2.5268 3.653465,-4.306 l 3.020716,-3.235 3.514483,0.3945 c 5.511741,0.6185 10.753523,-0.3279 16.215278,-2.9275 4.661219,-2.2187 7.66994,-5.7774 9.539341,-11.2834 0.55793,-1.6432 1.17493,-2.9377 1.371111,-2.8765 0.404444,0.126 1.877764,4.2647 1.917036,5.3851 0.02903,0.8281 -4.115736,5.9479 -8.123674,10.0347 -6.480794,6.6083 -16.081569,13.4623 -20.508291,14.6409 -2.554164,0.68 -2.643416,0.6657 -5.839444,-0.9339 z m 603.316262,0.937 c -3.56452,-0.9596 -9.84684,-5.182 -16.83497,-11.3148 -4.14961,-3.6418 -6.66299,-6.3245 -10.03002,-10.7061 l -1.72641,-2.2465 0.60379,-2.5611 c 0.65539,-2.7801 1.43579,-4.2771 1.74307,-3.3436 0.0957,0.2908 0.44636,1.401 0.77917,2.4672 1.50982,4.837 4.43959,8.77 8.20293,11.0118 4.69389,2.7961 12.74265,4.5608 17.37422,3.8093 3.89325,-0.6317 3.71771,-0.7071 7.14597,3.0667 4.24514,4.6732 4.28185,4.7751 2.33826,6.4999 -1.66655,1.479 -6.17501,3.8253 -7.27497,3.7861 -0.36737,-0.013 -1.41184,-0.2241 -2.32104,-0.4689 z M 41.036068,1267.7838 c -7.930388,-1.1052 -13.799368,-9.0472 -12.379619,-16.7525 0.237126,-1.2869 0.755093,-2.9748 1.151037,-3.751 1.113457,-2.1825 3.710411,-4.7278 5.89699,-5.7796 1.720677,-0.8278 2.404354,-0.9513 5.165962,-0.9332 2.675705,0.018 3.494036,0.168 5.136018,0.9449 2.091775,0.9895 4.252356,2.9169 5.193814,4.6332 0.411691,0.7505 0.580915,1.945 0.583077,4.1157 0.0025,2.5421 -0.119597,3.2225 -0.723671,4.0316 -1.235619,1.655 -2.479362,2.357 -4.467995,2.5219 -3.843702,0.3188 -6.066282,-1.6638 -5.805567,-5.1784 0.118336,-1.5952 0.309875,-2.045 1.159327,-2.7223 0.559664,-0.4463 1.694287,-0.9129 2.521386,-1.037 1.795496,-0.2692 1.923274,-0.8376 0.506749,-2.2541 -0.938791,-0.9388 -2.984564,-1.7621 -4.389415,-1.7665 -1.99529,-0.01 -4.628094,1.9382 -6.172794,4.5587 -1.721159,2.9199 -1.061165,7.8622 1.519654,11.3797 4.229303,5.7644 14.25698,5.8915 19.896238,0.2522 2.397768,-2.3977 3.295718,-4.839 3.298224,-8.9669 0.0022,-3.7098 -0.645325,-5.7087 -2.783225,-8.5913 -1.702628,-2.2957 -3.914927,-3.9877 -9.938409,-7.6011 -8.494711,-5.0959 -12.206465,-8.3523 -14.661503,-12.863 -1.346127,-2.4733 -2.640351,-7.4017 -3.033593,-11.552 -0.304386,-3.2125 -0.890298,-660.43126 -0.890298,-998.64951 V 128.11174 L 28.5951,124.6178 c 1.092717,-4.91591 2.982451,-8.67236 5.939816,-11.80733 2.702411,-2.8647 5.62341,-4.9956 12.493136,-9.11387 7.385439,-4.427414 10.452759,-7.949327 11.291259,-12.964671 0.385214,-2.304097 0.150769,-5.22852 -0.587908,-7.333446 -1.163442,-3.315334 -4.518245,-6.40368 -8.141348,-7.494721 -2.311121,-0.695958 -6.58807,-0.6979 -8.974742,-0.0041 -5.007651,1.455764 -8.854726,8.003394 -7.709405,13.121226 0.968288,4.32677 5.82398,7.474554 9.428976,6.112492 1.173236,-0.44328 2.93082,-2.039673 2.93082,-2.662031 0,-0.240763 -0.861956,-0.688329 -1.915457,-0.994589 -2.445736,-0.710995 -3.372064,-1.819944 -3.370271,-4.034705 0.0024,-3.01232 2.096605,-4.975158 5.30803,-4.975158 6.524077,0 8.253639,9.702369 2.486389,13.947964 -5.062138,3.726519 -11.233446,3.490772 -15.709534,-0.60012 -8.902965,-8.136807 -2.972198,-23.489948 9.349472,-24.203238 6.631306,-0.383881 14.299459,3.124437 16.987888,7.772264 1.575497,2.723758 2.181655,5.123974 2.158337,8.546409 -0.05122,7.517237 -3.460174,12.518554 -13.260125,19.454084 -8.507485,6.02084 -10.792783,8.88702 -12.592145,15.79288 -1.320841,5.06933 -1.514002,9.93062 -1.288475,32.42721 0.116605,11.6315 0.294279,252.1656 0.394831,534.52022 0.100552,282.35462 0.272969,515.18603 0.383149,517.40283 0.438097,8.8146 2.430713,14.6115 6.400564,18.6205 1.113104,1.1241 4.543795,3.8628 7.623759,6.0862 6.375852,4.6024 9.204722,7.4532 10.983606,11.0687 1.254894,2.5504 2.25657,6.4067 2.267467,8.7293 0.01758,3.7453 -1.83923,8.0856 -4.539688,10.6115 -4.072682,3.8095 -10.509932,5.8909 -15.897433,5.1402 z m 585.275902,0.1521 c -3.70156,-0.439 -7.95922,-2.2504 -11.00737,-4.6828 -3.60938,-2.8804 -5.55729,-8.6588 -4.76087,-14.123 0.95954,-6.5834 4.3258,-10.9566 13.19255,-17.1387 2.73671,-1.9081 5.88695,-4.3646 7.00055,-5.4587 2.39937,-2.3575 4.49294,-6.3511 5.70148,-10.8757 l 0.80022,-2.996 -0.0689,-244.79032 c -0.13874,-492.94165 -0.27237,-721.98411 -0.45561,-780.8965 l -0.18747,-60.27231 -0.93008,-3.37594 c -1.9565,-7.10161 -4.16235,-9.90214 -12.43553,-15.78816 -5.86542,-4.17299 -8.97141,-7.06822 -10.6875,-9.962282 -4.43494,-7.47921 -3.67941,-15.835561 1.90967,-21.121477 5.31558,-5.027256 14.87183,-6.433037 20.66238,-3.039556 2.15948,1.265545 5.0766,4.499602 6.17741,6.848599 0.85151,1.816986 0.95023,2.430422 0.95023,5.904798 0,3.787327 -0.0292,3.930253 -1.26339,6.168219 -3.26115,5.913895 -10.07503,8.263649 -16.00763,5.520215 -3.88152,-1.794947 -5.47874,-4.074267 -5.7207,-8.163737 -0.18559,-3.136727 0.75789,-5.226464 2.90095,-6.425322 3.57721,-2.001155 8.28303,0.172696 8.28303,3.826346 0,2.66593 -1.7374,4.537559 -4.21213,4.537559 -1.95192,0 -1.17941,2.133879 1.15646,3.194451 2.26124,1.026687 4.08006,0.888437 6.08879,-0.462812 2.57895,-1.734831 3.77686,-3.674049 3.95009,-6.394531 0.41879,-6.576981 -3.7234,-11.748222 -10.01732,-12.505938 -4.19125,-0.504579 -8.01863,0.520237 -11.30964,3.028272 -3.02069,2.302018 -4.77296,7.602418 -4.02021,12.160551 0.22202,1.344312 0.81887,3.264691 1.32635,4.26751 1.25786,2.485635 4.66308,5.700775 8.24511,7.784885 5.9481,3.46075 11.08343,7.06326 13.55919,9.51199 2.89404,2.86246 4.93221,6.5646 6.22885,11.31414 0.75919,2.78085 0.77314,3.30603 1.01118,38.06671 0.13276,19.38583 0.36696,263.10303 0.52045,541.59378 0.22248,403.64446 0.18999,506.91396 -0.16019,509.14256 -1.08543,6.9076 -2.9104,10.8304 -6.88276,14.7945 -2.77207,2.7664 -5.45276,4.6804 -13.02889,9.3028 -6.1979,3.7815 -9.35183,7.5611 -10.03402,12.0246 -0.93529,6.1197 1.13664,11.086 5.71057,13.6878 2.90574,1.6529 5.58797,2.2831 8.62437,2.0265 3.23648,-0.2736 5.18946,-1.1173 7.42393,-3.2074 2.45462,-2.296 3.34753,-4.4967 3.37568,-8.3196 0.0204,-2.7652 -0.0678,-3.1663 -1.04302,-4.7466 -2.51857,-4.0814 -7.42326,-5.1911 -10.18822,-2.3051 -1.24839,1.303 -1.01393,1.9779 0.78719,2.2659 0.99958,0.1598 1.71628,0.5822 2.4975,1.472 2.7726,3.1578 0.17851,7.5678 -4.45163,7.5678 -2.23562,0 -3.85976,-1.0388 -4.96418,-3.1751 -0.69094,-1.3365 -0.79571,-1.9757 -0.67215,-4.1013 0.25915,-4.4584 2.58972,-7.1763 7.40868,-8.64 5.35094,-1.6253 10.05535,0.1311 13.68349,5.1086 2.38471,3.2717 2.77595,9.4655 0.8446,13.3711 -2.4818,5.0187 -6.95744,8.0431 -12.51553,8.4575 -1.06622,0.08 -2.41442,0.088 -2.99599,0.02 z M 47.481342,1223.9573 c -3.336105,-1.0426 -7.292105,-4.4083 -9.377478,-7.9782 -0.991976,-1.6982 -2.095431,-5.5487 -2.500047,-8.7241 -0.298223,-2.3404 0.131677,-2.1722 1.530597,0.5991 2.03657,4.0344 7.202323,10.1343 10.951048,12.9315 0.678504,0.5062 2.30427,1.4647 3.612814,2.13 1.308544,0.6652 2.37917,1.2868 2.37917,1.3813 0,0.3671 -5.189979,0.1 -6.596104,-0.3396 z m 569.842658,0.3738 c 0,-0.1144 1.02883,-0.6743 2.28628,-1.2445 5.54425,-2.5138 11.62673,-8.8772 15.18748,-15.8889 1.66204,-3.2728 1.89575,-2.6677 0.85219,2.2062 -1.00404,4.6895 -2.46107,7.6356 -5.10835,10.3288 -3.08522,3.1387 -6.07506,4.5217 -10.12461,4.683 -1.70115,0.067 -3.09299,0.029 -3.09299,-0.085 z m 5.06701,-8.0291 c -1.40473,-0.3696 -1.97546,-1.0652 -1.83214,-2.2328 0.0963,-0.7851 0.53402,-1.1079 2.88321,-2.1271 3.56493,-1.5466 5.93022,-3.1318 9.20869,-6.1717 1.45321,-1.3474 2.73377,-2.4499 2.84567,-2.4499 0.82518,0 -3.18704,6.3085 -5.99521,9.4265 -2.85643,3.1715 -4.82562,4.1561 -7.11022,3.555 z m -577.057028,-0.6533 c -1.623029,-0.9895 -4.090705,-3.5996 -5.799607,-6.1344 -0.793677,-1.1772 -1.970066,-2.8373 -2.6142,-3.689 -2.152265,-2.8461 -1.253667,-2.9573 1.711771,-0.2119 2.802788,2.595 5.694966,4.5191 9.247986,6.1529 3.214718,1.4782 3.542117,1.7779 3.243155,2.9691 -0.412958,1.6453 -3.730097,2.1687 -5.789105,0.9133 z M 35.237077,135.24926 c 0.132274,-0.43618 0.513391,-1.11028 0.846926,-1.498 0.333535,-0.38772 1.569217,-2.05707 2.745959,-3.70968 2.320722,-3.25919 5.173506,-6.14127 6.625196,-6.6932 1.471363,-0.55941 3.169022,-0.40341 4.168883,0.38308 1.825701,1.43609 1.199636,2.32762 -3.015811,4.29456 -3.305372,1.5423 -6.103418,3.42526 -8.976061,6.0405 -1.193641,1.08669 -2.274957,1.97579 -2.402923,1.97579 -0.127967,0 -0.124443,-0.35687 0.0078,-0.79305 z M 632.2907,133.91205 c -2.39145,-2.43068 -6.12567,-4.9407 -9.50342,-6.38787 -2.14143,-0.91748 -2.84629,-1.39051 -2.93001,-1.96632 -0.18002,-1.23796 0.54698,-2.15526 1.91087,-2.41112 2.00967,-0.37702 3.73575,0.36527 6.02012,2.58891 1.81669,1.76841 6.51401,8.07625 7.04537,9.46096 0.40618,1.0585 -0.87387,0.41189 -2.54293,-1.28456 z m 2.55793,-0.39456 c -0.2792,-0.453 -1.26294,-2.09253 -2.18608,-3.64339 -3.82113,-6.4194 -7.99659,-10.55203 -13.57621,-13.43692 l -2.64352,-1.36681 2.25605,-0.10632 c 6.03187,-0.28425 11.79135,3.60502 14.67898,9.91245 0.83842,1.83134 2.47454,8.96852 2.13401,9.30905 -0.0856,0.0856 -0.38403,-0.21506 -0.66323,-0.66806 z m -600.131658,0.0575 c -0.04752,-1.56103 1.509993,-7.50187 2.490944,-9.50121 1.49692,-3.05095 4.690605,-6.23403 7.771614,-7.74581 1.921388,-0.94278 2.915455,-1.19151 5.375162,-1.34497 1.659799,-0.10355 3.017815,-0.0893 3.017815,0.0317 0,0.12099 -0.83271,0.63819 -1.850466,1.14934 -5.89744,2.96187 -10.018273,7.31217 -16.369112,17.28062 -0.319614,0.50167 -0.423703,0.53279 -0.435957,0.13032 z M 62.743746,86.393912 c -0.102874,-0.166455 -0.586372,-1.56674 -1.074439,-3.111746 -1.467049,-4.644032 -4.227489,-8.252988 -7.988527,-10.444074 -5.23229,-3.0482 -14.318717,-4.621819 -19.622884,-3.39836 l -1.514892,0.349426 -2.890979,-3.037793 c -1.590039,-1.670786 -3.267307,-3.661604 -3.727265,-4.424039 -0.796952,-1.321046 -0.807526,-1.418024 -0.224825,-2.061902 0.85735,-0.947361 4.989509,-3.347269 6.826573,-3.96479 2.566119,-0.862589 5.750484,0.169261 10.943228,3.546007 5.254193,3.416703 14.080729,11.3243 18.348444,16.438167 3.175778,3.805436 3.276759,4.023041 2.821239,6.079629 -0.854284,3.856948 -1.350465,4.911639 -1.895673,4.029475 z M 606.30705,84.846091 c -1.18195,-3.826345 -1.16114,-4.164858 0.38207,-6.218672 7.22672,-9.617868 20.04317,-20.216546 26.92533,-22.266141 2.04789,-0.609888 2.63468,-0.659243 3.73196,-0.313902 1.75583,0.552607 5.69059,2.882541 6.70876,3.972544 0.79566,0.851784 0.80457,0.92425 0.25339,2.060122 -0.3142,0.647506 -1.95419,2.652822 -3.64442,4.456259 l -3.07314,3.278976 -1.91331,-0.413787 c -4.67523,-1.011098 -12.4762,0.268221 -17.97789,2.948279 -4.46381,2.174477 -8.43137,7.316569 -9.56955,12.402467 -0.23931,1.069376 -0.61883,1.94432 -0.84337,1.94432 -0.22453,0 -0.66546,-0.832708 -0.97983,-1.850465 z M 58.86,70.2575 C 47.841959,58.891308 41.06017,53.506979 35.389809,51.623587 33.03166,50.840336 30.575925,48.476289 29.11583,45.583858 c -1.228109,-2.43287 -2.791758,-7.451695 -2.949413,-9.466696 -0.103373,-1.32122 -0.04668,-1.41715 0.901598,-1.52552 2.330635,-0.266346 9.360635,2.090331 12.330274,4.133496 2.148007,1.477867 3.231004,2.863777 3.944133,5.0473 1.754115,5.370904 6.68996,11.565463 17.998632,22.588548 3.740047,3.645596 6.903014,6.952657 7.028817,7.349023 0.167031,0.526271 -0.08458,1.043921 -0.932771,1.919033 -0.638825,0.6591 -1.397061,1.198364 -1.684966,1.198364 -0.287906,0 -3.389366,-2.956457 -6.892134,-6.569906 z m 544.22211,5.494311 c -0.69673,-0.611737 -1.26678,-1.361913 -1.26678,-1.667058 0,-0.305146 4.01091,-4.610873 8.91314,-9.568284 4.90222,-4.957413 9.92215,-10.361673 11.15539,-12.009468 1.94252,-2.595496 4.00667,-6.332887 5.57999,-10.103192 1.11473,-2.671375 5.31331,-5.382423 10.79653,-6.971396 1.71072,-0.495751 3.74755,-0.901364 4.52626,-0.901364 h 1.41586 l -0.23942,1.850466 c -0.59937,4.632274 -3.03573,10.381267 -5.45667,12.875882 -0.78554,0.809452 -2.37255,1.791788 -4.09501,2.534755 -6.59245,2.843605 -9.59597,5.198973 -20.8901,16.382116 -4.70857,4.662297 -8.69859,8.524804 -8.86673,8.583348 -0.16812,0.05854 -0.87573,-0.394068 -1.57246,-1.005805 z M 67.711084,69.592923 C 59.531197,62.762372 51.187515,52.584415 48.590667,46.269076 c -1.47226,-3.580427 -1.098643,-5.612903 1.849959,-10.063797 2.258518,-3.409216 2.506694,-3.351636 8.206543,1.903998 l 2.925013,2.697053 -0.448896,2.379058 c -0.933245,4.946006 0.119396,11.547361 2.713692,17.018195 2.302849,4.856235 6.914104,8.49129 13.072676,10.305197 0.829286,0.244253 1.454516,0.60393 1.389398,0.799284 -0.131705,0.395112 -2.913606,1.40681 -4.867316,1.770101 -1.211381,0.225255 -1.454665,0.07704 -5.720652,-3.485242 z m 528.288496,3.341889 c -2.0063,-0.413618 -4.17145,-1.219444 -4.29707,-1.599286 -0.0589,-0.178128 1.31683,-0.773889 3.0572,-1.323914 8.51927,-2.69241 12.91746,-8.594165 14.44989,-19.389721 0.34864,-2.456041 0.35118,-3.81149 0.0122,-6.504341 l -0.42818,-3.401746 2.23847,-2.051699 c 3.593,-3.293214 5.60391,-4.837995 6.29785,-4.837995 0.88035,0 2.50792,2.055011 4.07894,5.150166 1.15503,2.275591 1.28033,2.77289 1.09433,4.34341 -0.54799,4.626861 -6.97802,13.908903 -15.34484,22.15096 -3.38955,3.339001 -8.93408,7.884513 -9.50629,7.793445 -0.13347,-0.02124 -0.87711,-0.169415 -1.65254,-0.329279 z M 76.987975,68.716539 C 69.988918,67.507565 65.549277,62.846798 63.767774,54.837876 c -1.97893,-8.896473 3.251179,-17.09209 11.877115,-18.611518 5.65015,-0.995255 11.826839,2.052306 14.278594,7.045017 0.852667,1.736356 0.984742,2.417874 0.970138,5.00599 -0.03847,6.817443 -4.007456,11.299591 -9.980838,11.271288 -3.693302,-0.0175 -6.41921,-2.511155 -6.44543,-5.89627 -0.02629,-3.393779 1.774816,-5.375018 4.886321,-5.375018 1.645777,0 2.063032,0.144869 2.938341,1.020178 0.643546,0.643546 1.106067,1.557306 1.252828,2.475099 0.127958,0.800207 0.377404,1.544384 0.554324,1.653727 0.561951,0.347304 2.018828,-0.880431 2.753425,-2.32036 1.311602,-2.570952 0.67078,-5.274424 -1.815045,-7.657238 -1.678635,-1.609071 -3.403713,-2.220799 -6.262681,-2.220799 -4.668344,0 -8.551912,2.320678 -10.490724,6.268871 -0.901783,1.836387 -0.989083,2.35638 -0.989083,5.891332 0,3.506968 0.09161,4.06352 0.959417,5.828886 2.081393,4.234132 4.845812,6.375295 9.355704,7.246401 3.25849,0.629393 6.267411,0.262033 9.121118,-1.1136 2.634503,-1.269966 6.197972,-5.207583 8.91332,-9.849179 2.759862,-4.717693 6.723242,-10.397602 8.483862,-12.158224 3.08686,-3.086855 7.37775,-5.28545 12.55026,-6.430577 l 3.48677,-0.771926 212.01052,-0.112534 c 142.35259,-0.07556 213.34228,0.0058 216.06391,0.247528 7.83911,0.696347 13.00195,2.617162 17.01108,6.328912 2.78212,2.575748 4.38388,4.728596 8.81048,11.841722 4.14092,6.654073 6.66587,9.503472 9.77402,11.029979 1.78383,0.876092 2.2878,0.953989 6.17207,0.953989 3.92289,0 4.37597,-0.07185 6.24726,-0.990775 2.42113,-1.188917 4.20599,-3.143875 5.69239,-6.234853 1.02323,-2.127808 1.10067,-2.554755 1.08692,-5.991983 -0.0129,-3.207141 -0.13503,-3.961067 -0.91584,-5.650628 -1.81367,-3.924526 -5.87139,-6.340077 -10.62595,-6.3256 -3.09192,0.0095 -4.85418,0.728753 -6.64116,2.710854 -1.61356,1.789737 -2.213,3.553462 -1.90524,5.605745 0.25746,1.716867 2.03232,4.121268 2.90844,3.940072 0.27714,-0.05731 0.79742,-0.973269 1.15619,-2.035456 1.05176,-3.113872 3.27703,-4.229958 5.88489,-2.951562 1.97425,0.967795 2.92786,2.615531 2.92786,5.059044 0,3.814614 -2.38399,5.827047 -6.87317,5.801962 -1.82943,-0.01023 -2.84346,-0.211437 -3.92236,-0.778321 -4.67152,-2.45455 -6.9904,-9.138716 -5.00829,-14.436384 0.91327,-2.440932 3.85618,-5.557706 6.33832,-6.712773 8.51833,-3.964016 18.38983,1.087862 20.35166,10.415233 1.57696,7.497502 -2.57274,16.412494 -9.02365,19.385907 -2.94294,1.356487 -6.35893,1.891842 -9.3598,1.466867 -6.68711,-0.947013 -11.16252,-4.358609 -17.78353,-13.556377 -6.19141,-8.600959 -9.53546,-11.033182 -17.19179,-12.504045 l -3.87716,-0.744848 -214.12532,0.01009 c -133.9753,0.0063 -214.87534,0.135781 -216.12901,0.345884 -9.50908,1.593627 -12.92419,3.856035 -19.43475,12.874948 -3.964552,5.491993 -7.650568,9.438351 -10.201856,10.922416 -3.671133,2.135471 -9.054413,3.273094 -12.594669,2.661572 z M 562.55952,60.790038 c -2.87161,-6.130793 -8.30367,-11.589159 -15.9057,-15.98274 -1.6178,-0.935005 -2.57787,-1.676559 -2.2523,-1.739663 1.22054,-0.236575 7.63863,1.382374 9.8241,2.478107 2.87829,1.443099 6.27895,4.750296 7.52042,7.313728 1.10186,2.275185 1.7315,5.330789 1.58103,7.672633 l -0.10717,1.667813 z m -455.45726,0.418036 c -0.38798,-1.00398 0.14886,-5.025319 0.93822,-7.02793 2.14134,-5.432639 7.04841,-9.125689 13.98161,-10.522539 4.90726,-0.988679 5.33079,-0.774123 2.00242,1.014414 -6.56022,3.525206 -12.45527,9.034079 -15.07419,14.086695 -1.22985,2.372708 -1.65826,2.940515 -1.84806,2.44936 z m 9.28808,-2.729556 c -1.6434,-0.958057 -1.36525,-4.567286 0.52909,-6.865453 1.80923,-2.19491 10.87964,-8.684783 11.4045,-8.159918 0.1078,0.107802 -0.50484,0.959781 -1.36143,1.893289 -3.25842,3.55101 -5.02189,6.034229 -6.52066,9.182034 -2.03454,4.273063 -2.58193,4.806758 -4.0515,3.950048 z m 435.64429,-0.243886 c -0.29929,-0.339251 -1.13846,-1.806406 -1.86481,-3.260343 -1.76079,-3.524622 -3.62767,-6.225332 -6.2159,-8.992151 -2.90306,-3.103381 -1.8257,-3.067442 2.76669,0.09229 4.86076,3.344384 7.30751,5.838235 7.99314,8.147047 0.59185,1.992966 0.49342,2.626864 -0.59579,3.836921 -0.85862,0.953879 -1.35984,0.996279 -2.08333,0.176235 z"
       id="path2" /></g></svg>
