<?xml version="1.0" encoding="UTF-8" standalone="no"?>
<!-- Created with Inkscape (http://www.inkscape.org/) -->

<svg
   version="1.1"
   id="svg1"
   width="419.05399"
   height="511.15988"
   viewBox="0 0 419.05399 511.15988"
   xmlns="http://www.w3.org/2000/svg"
   xmlns:svg="http://www.w3.org/2000/svg">
  <defs
     id="defs1" />
  <g
     id="g1"
     transform="translate(-46.572655,-0.42540738)">
    <path
       style="fill:#000000"
       d="M 171.5,510.43317 C 146.64492,504.95879 123.00523,484.42926 97.305392,446 70.78658,406.34611 54.246659,362.8308 47.893144,316 45.767388,300.33138 46.278111,269.87347 48.922394,254.61874 54.909316,220.0805 66.702943,196.47555 89.291285,173.82038 114.28817,148.74954 144.98537,135 175.96157,135 c 13.77766,0 27.87359,2.85259 48.56043,9.82715 23.96932,8.08126 29.11752,9.29022 39.33293,9.23665 9.77855,-0.0513 12.31374,-0.6701 34.72275,-8.4755 20.75896,-7.23067 31.07811,-9.52307 46.25321,-10.27514 14.71502,-0.72928 25.67459,0.64824 39.16911,4.9232 20.70213,6.55828 39.81011,18.56425 55.57829,34.9211 C 450.53826,186.5266 452,188.62973 452,193.02967 c 0,6.14519 -1.75414,8.55166 -10.26371,14.08057 -26.75193,17.3815 -40.86566,42.6697 -40.94089,73.35565 -0.0295,12.02992 1.25682,20.7438 4.43351,30.03411 8.16091,23.86679 24.2308,41.81593 46.98404,52.47845 9.13751,4.28198 11.18807,6.00486 12.86197,10.80661 1.47675,4.23621 0.52684,6.9785 -9.60027,27.71494 -18.10038,37.06267 -44.96106,74.1943 -65.73341,90.86845 -17.55402,14.09077 -30.37668,19.2008 -47.74124,19.02562 -12.70709,-0.12819 -21.64651,-2.37638 -37.69209,-9.47925 -15.58401,-6.89854 -24.63069,-8.97867 -39.088,-8.98759 -16.84139,-0.0104 -23.42166,1.53715 -44.54263,10.47553 -5.9525,2.5191 -13.52282,5.27984 -16.82294,6.13498 -8.95849,2.32138 -23.99123,2.73743 -32.35434,0.89543 z M 209,481.6031 C 234.57206,471.04988 247.13766,468 265.04523,468 c 17.10345,0 29.90903,3.0054 49.95477,11.72411 13.28737,5.77921 18.80683,7.24919 27.27498,7.26402 23.02413,0.0403 46.66202,-21.63985 77.09974,-70.71426 4.1707,-6.72437 9.89694,-16.83701 12.72497,-22.47252 4.64497,-9.25619 4.97665,-10.34569 3.43217,-11.27387 C 408.5554,366.31553 391.11367,345.35956 381.8254,318 c -7.51477,-22.13554 -7.81205,-48.68371 -0.79505,-71 6.3275,-20.12346 22.06323,-42.7051 37.36611,-53.62243 l 2.89646,-2.06638 -4.75363,-4.40559 C 395.52234,167.42738 369.57623,157.94755 343,160.03684 c -12.1633,0.95622 -19.41618,2.70042 -36.59301,8.80003 -19.2246,6.8268 -22.95387,7.94557 -30.40699,9.12202 -15.85881,2.50326 -27.94533,0.65851 -54.78957,-8.36248 -23.39601,-7.86221 -32.62146,-9.83989 -45.71043,-9.799 -29.04264,0.0907 -57.943,15.69927 -79.000888,42.66694 -8.286985,10.61269 -13.56104,20.5132 -17.864608,33.53565 -4.669394,14.12943 -6.67862,26.44848 -7.346644,45.04407 -0.88726,24.6984 2.326635,48.48164 10.090672,74.67228 14.96432,50.47955 51.648368,107.14035 80.440558,124.24548 10.29076,6.11363 14.0018,7.08299 25.68091,6.70812 9.28668,-0.29807 10.82031,-0.6595 21.5,-5.06685 z m 34.5,-347.67101 c -3.63375,-1.92802 -5.66559,-5.94611 -6.69478,-13.23937 C 231.87606,85.76288 254.60866,41.668572 289,19.450783 304.20828,9.6257956 321.37291,2.8490695 336.05478,0.87319784 349.24597,-0.9020593 353.4277,2.3195556 355.20595,15.627313 357.22613,30.74558 353.02682,52.884514 344.89281,69.998606 329.97994,101.37554 303.90452,123.90617 272.5,132.55006 c -7.24258,1.99347 -26.14943,2.8945 -29,1.38203 z M 274,106.31692 c 13.75852,-5.08433 28.98286,-16.64307 38.0409,-28.881711 9.2507,-12.498949 17.03158,-31.114814 18.526,-44.32371 l 0.70342,-6.217449 -2.88516,0.670061 c -4.72332,1.096963 -20.69409,8.891903 -27.00777,13.181831 -13.73875,9.335011 -25.04432,22.48603 -32.40658,37.696433 C 264.67314,87.321363 261,100.08275 261,106.13496 c 0,3.76374 0.0437,3.80676 3.25,3.19951 1.7875,-0.33854 6.175,-1.69644 9.75,-3.01755 z"
       id="path1" />
  </g>
</svg>
