<?xml version="1.0" encoding="UTF-8" standalone="no"?>
<!-- Created with Inkscape (http://www.inkscape.org/) -->

<svg
   version="1.1"
   id="svg1"
   width="290.87454"
   height="511.63022"
   viewBox="0 0 290.87454 511.63022"
   xmlns="http://www.w3.org/2000/svg"
   xmlns:svg="http://www.w3.org/2000/svg">
  <defs
     id="defs1" />
  <g
     id="g1"
     transform="translate(-111.02148,-0.07401793)">
    <path
       style="fill:#000000"
       d="m 201.99353,511.08471 c -7.71545,-2.40558 -15.15969,-9.42373 -16.99193,-16.01936 -0.62166,-2.23781 -0.99252,-38.81829 -0.99602,-98.2438 L 184,302.1431 156.75,301.82155 c -26.72522,-0.31536 -27.34348,-0.36929 -32.10393,-2.80071 -5.47575,-2.79676 -9.10424,-6.65386 -11.77873,-12.52084 -1.67593,-3.67647 -1.82519,-7.58985 -1.84538,-48.38398 -0.0153,-30.85047 0.33192,-45.56511 1.1386,-48.25758 1.40268,-4.68174 6.5268,-10.87904 11.60666,-14.03752 C 127.38196,173.5734 128.38546,173.48419 155.5,173 l 28,-0.5 0.57757,-31 c 0.48659,-26.1167 0.90836,-32.57526 2.67747,-41 C 193.58761,67.962364 208.77072,42.634453 232,25.023982 245.41745,14.852013 259.52701,8.1552597 277.93277,3.2231296 c 9.52146,-2.55143111 9.79762,-2.5655994 57.72367,-2.96146716 46.34209,-0.38278432 48.30175,-0.32364211 52.01311,1.56975286 4.88845,2.4939039 8.93838,6.5349937 11.68098,11.6554787 2.08288,3.888785 2.15883,5.277506 2.45151,44.828196 0.34223,46.24654 0.0787,48.48071 -6.59199,55.88647 -7.05252,7.82965 -8.68608,8.1646 -42.75767,8.7671 -32.98467,0.58328 -34.59678,0.88641 -36.13198,6.79399 -0.39124,1.50554 -0.73588,11.73735 -0.76587,22.73735 l -0.0545,20 33,0.5 33,0.5 4.79216,2.81686 c 6.02869,3.5437 10.27249,9.3378 11.72408,16.00699 0.76798,3.52839 1.0243,18.86465 0.80519,48.17615 -0.31222,41.76844 -0.38299,43.11494 -2.4709,47.01311 -2.93221,5.4745 -6.98922,9.37819 -12.35053,11.88381 -4.2328,1.9782 -6.41495,2.12097 -36.75,2.40439 l -32.25,0.30131 -0.006,94.69869 c -0.003,59.43887 -0.37435,96.0262 -0.99602,98.26404 -1.30257,4.68895 -7.17724,11.44954 -12.35585,14.21914 -4.09097,2.18793 -4.7215,2.21779 -50.64255,2.39861 -25.575,0.10071 -47.62791,-0.16857 -49.00647,-0.59839 z M 285,386.04922 c 0,-63.42906 0.35661,-97.57743 1.05213,-100.75 1.20191,-5.48243 3.19368,-8.25965 8.04458,-11.21696 3.27628,-1.99736 4.73743,-2.07492 39.15329,-2.07852 L 369,272 V 237.5 203 l -34.25,-0.0439 c -35.85153,-0.046 -39.27363,-0.40505 -43.91858,-4.60867 -4.91501,-4.44803 -5.30359,-6.51737 -5.66136,-30.1491 -0.33114,-21.87282 0.78825,-41.24261 2.78619,-48.21206 3.02813,-10.56311 12.28772,-20.059071 23.54375,-24.144771 5.41395,-1.965148 8.63723,-2.234701 33,-2.759691 L 371.5,92.5 371.76405,60.75 372.02809,29 338.76405,29.0059 c -37.2516,0.0066 -46.80729,0.935514 -62.06753,6.033605 -31.18294,10.417492 -50.95717,32.5968 -59.82151,67.097415 -1.9583,7.62184 -2.20354,11.90836 -2.76686,48.36308 -0.66149,42.80708 -0.69838,43.10423 -5.93957,47.84744 -4.5304,4.09995 -8.38897,4.56282 -38.41858,4.60867 L 141,203 v 34.5 34.5 l 30.25,0.004 c 28.84972,0.004 30.40754,0.0998 33.65329,2.07852 4.8509,2.95731 6.84267,5.73453 8.04458,11.21696 0.69552,3.17257 1.05213,37.32094 1.05213,100.75 V 482 h 35.5 35.5 z"
       id="path1" />
  </g>
</svg>
