<?xml version="1.0" encoding="UTF-8" standalone="no"?>
<!-- Created with Inkscape (http://www.inkscape.org/) -->

<svg
   version="1.1"
   id="svg1"
   width="511.3049"
   height="511.25385"
   viewBox="0 0 511.3049 511.25385"
   xmlns="http://www.w3.org/2000/svg"
   xmlns:svg="http://www.w3.org/2000/svg">
  <defs
     id="defs1" />
  <g
     id="g1"
     transform="translate(-0.53003544,-0.55357545)">
    <path
       style="fill:#000000"
       d="m 237,511.30063 c -21.44696,-1.6679 -48.74652,-7.63161 -69,-15.07336 C 143.83052,487.34665 116.76823,471.9866 96,455.36141 85.09144,446.62899 65.371011,426.90856 56.638592,416 27.882076,380.07729 8.8937262,336.20765 2.3177073,290.5 c -2.38356252,-16.56732 -2.38356252,-52.43268 0,-69 C 8.8937262,175.79235 27.882076,131.92271 56.638592,96 65.366091,85.097586 85.08532,65.376796 96,56.635475 116.85838,39.930466 145.1019,23.993809 169.5,15.162446 183.27624,10.175868 205.82475,4.618778 221.5,2.3470198 236.38591,0.18965847 272.00568,-0.08021004 286,1.8583441 330.75164,8.057537 372.53415,25.064917 407.80939,51.440289 c 12.21383,9.132309 14.90769,11.883375 16.34992,16.697094 2.48995,8.310713 1.84032,9.174118 -33.9961,45.183247 -17.96477,18.05135 -34.59827,33.96983 -36.96334,35.3744 -6.3964,3.79871 -10.7006,2.96356 -21.04093,-4.08261 -15.69492,-10.69492 -33.29615,-18.32586 -51.39076,-22.28023 -11.57253,-2.52905 -38.83389,-2.49405 -50.76818,0.0652 -45.29719,9.71365 -81.08388,38.79994 -99.07123,80.52199 -29.50416,68.43549 2.7731,148.31062 71.99057,178.15189 29.70952,12.80848 63.89828,14.24096 95.08066,3.9838 10.42898,-3.43052 27.85019,-12.52413 36.5,-19.05245 15.63609,-11.80112 27.81213,-25.15075 37.52639,-41.14338 L 377.10395,316.5 314.30197,316 c -59.55392,-0.47414 -62.96518,-0.59878 -65.95771,-2.40993 -1.73566,-1.05046 -4.09816,-3.58673 -5.25,-5.63615 C 241.04904,304.31495 241,303.09838 241,256 c 0,-47.26967 0.0421,-48.30255 2.11789,-51.99596 1.16483,-2.07255 3.823,-4.7266 5.90704,-5.8979 l 3.78916,-2.12962 122.51981,0.26174 c 121.98116,0.26059 122.53195,0.2708 125.28116,2.32353 5.4274,4.0524 6.51646,6.62553 8.49535,20.07195 10.34844,70.3168 -9.04188,141.51802 -53.749,197.36626 -8.73242,10.90856 -28.45285,30.62899 -39.36141,39.36141 -39.96208,31.99007 -86.96358,50.86595 -138.5,55.62182 -10.31138,0.95155 -30.32842,1.10842 -40.5,0.3174 z m 40.57632,-30.36361 C 293.61029,479.37677 311.63638,475.52211 327.5,470.26146 343.0617,465.10093 366.9036,453.57039 379.73355,445 l 8.23355,-5.5 -21.8248,-21.83844 -21.82479,-21.83844 -5.00093,3.0771 c -14.41652,8.87058 -34.51779,16.48296 -53.56118,20.2837 -14.61342,2.9166 -43.12265,3.15413 -57.49117,0.47901 -34.58289,-6.43864 -64.498,-22.06575 -89.1453,-46.56788 -9.32103,-9.26614 -19.63256,-22.42335 -25.68674,-32.77552 l -3.78096,-6.46514 -22.024855,22.02485 -22.024858,22.02486 3.949241,5.76848 c 31.647822,46.22655 82.261032,80.54075 136.858742,92.78602 22.83973,5.12253 48.16816,6.71641 71.16682,4.47842 z M 432.34156,397 c 27.57312,-34.53047 44.51671,-76.59577 48.73792,-121 1.13834,-11.97462 0.70889,-40.90513 -0.70139,-47.25 L 479.76685,226 H 375.38342 271 v 30 30 h 65.59887 c 58.45284,0 65.97152,0.17683 69.01969,1.62329 7.27485,3.45214 9.89002,11.28375 6.85102,20.51668 -7.0873,21.53232 -20.47512,43.82162 -37.11787,61.79733 l -6.681,7.21609 21.41465,21.48104 21.41464,21.48103 7.42635,-7.80773 C 423.01083,408.01348 429.04768,401.125 432.34156,397 Z M 95.488704,298 c -3.766717,-14.02207 -4.871142,-23.54465 -4.871142,-42 0,-18.45169 1.102328,-27.95971 4.869341,-42 l 1.47565,-5.5 L 73.731277,185.22217 50.5,161.94434 l -2.304595,5.19688 c -14.769247,33.3048 -21.101676,76.52608 -16.711116,114.05984 2.517228,21.51913 6.560991,37.61985 14.735777,58.67226 L 50.248094,350.24664 73.607126,326.87332 96.966157,303.5 Z M 117.07583,166.10657 c 34.56606,-53.35437 97.38348,-82.863469 158.94621,-74.66654 20.31002,2.704228 36.80505,8.114691 56.91848,18.66957 l 11.44051,6.00362 21.47247,-21.472464 21.47246,-21.472463 -9.91298,-6.480079 C 290.31557,9.7529486 177.09431,20.115724 100.7281,92.012283 90.089952,102.02779 78.327293,115.63427 70.55484,126.91526 l -4.94516,7.17744 21.94516,21.98711 c 18.49538,18.53074 22.10236,21.7235 22.94516,20.31022 0.55,-0.9223 3.50912,-5.54985 6.57583,-10.28346 z"
       id="path1" />
  </g>
</svg>
